{"glyphs":{"0":{"ha":961,"x_min":0,"x_max":0,"o":"m 78 394 b 449 -18 78 140 214 -18 b 939 621 729 -18 939 256 b 568 1033 939 875 801 1033 b 78 394 286 1033 78 760 z m 247 400 b 557 881 247 674 379 881 b 768 615 696 881 768 785 b 460 135 768 343 636 135 b 247 400 319 135 247 231 z "},"1":{"ha":540,"x_min":0,"x_max":0,"o":"m 344 864 l 208 0 l 376 0 l 536 1015 l 154 1015 l 129 864 z "},"2":{"ha":800,"x_min":0,"x_max":0,"o":"m 696 0 l 721 161 l 324 161 l 514 299 b 806 735 714 440 806 576 b 485 1035 806 915 679 1035 b 103 667 274 1035 132 897 l 275 667 b 471 883 290 804 361 883 b 628 728 567 883 628 822 b 425 418 628 610 574 528 l 29 129 l 8 0 z "},"3":{"ha":775,"x_min":0,"x_max":0,"o":"m 371 506 b 557 328 488 506 557 439 b 368 135 557 210 483 135 b 193 324 260 135 193 207 l 22 324 b 371 -18 22 114 157 -18 b 735 329 586 -18 735 124 b 497 629 735 482 639 599 l 789 876 l 810 1015 l 181 1015 l 156 864 l 567 864 l 275 617 l 257 506 z "},"4":{"ha":882,"x_min":0,"x_max":0,"o":"m 807 194 l 832 346 l 711 346 l 817 1015 l 599 1015 l 39 346 l 14 194 l 524 194 l 493 0 l 656 0 l 686 194 z m 231 346 l 622 817 l 549 346 z "},"5":{"ha":821,"x_min":0,"x_max":0,"o":"m 406 -18 b 778 360 619 -18 778 140 b 467 689 778 556 653 689 b 314 643 407 689 357 674 l 399 856 l 792 856 l 817 1015 l 301 1015 l 93 485 l 240 451 b 419 544 286 515 346 544 b 597 346 526 544 597 467 b 403 135 597 219 517 135 b 224 324 292 135 224 207 l 53 324 b 406 -18 53 114 189 -18 z "},"6":{"ha":861,"x_min":0,"x_max":0,"o":"m 261 729 b 50 307 147 603 50 474 b 393 -18 50 124 193 -18 b 814 400 635 -18 814 161 b 501 703 814 576 686 703 b 438 694 481 703 460 700 l 729 1015 l 518 1015 z m 231 322 b 456 558 231 457 329 558 b 633 376 567 558 633 486 b 414 139 633 242 538 139 b 231 322 304 139 231 217 z "},"7":{"ha":740,"x_min":0,"x_max":0,"o":"m 115 1015 l 90 856 l 625 856 l 135 0 l 325 0 l 813 856 l 838 1015 z "},"8":{"ha":871,"x_min":0,"x_max":0,"o":"m 44 276 b 410 -17 44 103 192 -17 b 810 313 646 -17 810 115 b 669 532 810 415 757 496 b 849 779 778 569 849 660 b 521 1035 849 926 714 1035 b 156 739 308 1035 156 915 b 261 556 156 657 193 594 b 44 276 133 519 44 410 z m 313 736 b 506 886 313 826 392 886 b 685 753 613 886 685 831 b 500 603 685 660 610 603 b 313 736 388 603 313 650 z m 214 289 b 431 463 214 396 301 463 b 642 310 558 463 642 403 b 418 133 642 200 551 133 b 214 289 299 133 214 197 z "},"9":{"ha":861,"x_min":0,"x_max":0,"o":"m 653 286 b 864 708 767 413 864 543 b 519 1033 864 892 719 1033 b 100 617 279 1033 100 854 b 413 313 100 439 228 313 b 476 322 433 313 454 315 l 185 0 l 396 0 z m 683 693 b 458 457 683 560 585 457 b 279 639 347 457 279 531 b 500 876 279 774 375 876 b 683 693 610 876 683 799 z "},"A":{"ha":925,"x_min":0,"x_max":0,"o":"m 146 0 l 265 238 l 639 238 l 682 0 l 856 0 l 657 1015 l 481 1015 l -40 0 z m 508 724 b 540 799 521 750 533 781 b 550 724 540 779 546 744 l 613 383 l 338 383 z "},"Á":{"ha":925,"x_min":0,"x_max":0,"o":"m 808 1289 l 651 1289 l 518 1088 l 644 1088 z m 146 0 l 265 238 l 639 238 l 682 0 l 856 0 l 657 1015 l 481 1015 l -40 0 z m 508 724 b 540 799 521 750 533 781 b 550 724 540 779 546 744 l 613 383 l 338 383 z "},"Ă":{"ha":925,"x_min":0,"x_max":0,"o":"m 697 1292 b 597 1189 686 1226 656 1189 b 511 1292 539 1189 511 1226 l 394 1292 b 589 1076 394 1158 461 1076 b 815 1292 726 1076 794 1160 z m 146 0 l 265 238 l 639 238 l 682 0 l 856 0 l 657 1015 l 481 1015 l -40 0 z m 508 724 b 540 799 521 750 533 781 b 550 724 540 779 546 744 l 613 383 l 338 383 z "},"Â":{"ha":925,"x_min":0,"x_max":0,"o":"m 510 1088 l 608 1222 l 665 1088 l 786 1088 l 699 1299 l 531 1299 l 375 1088 z m 146 0 l 265 238 l 639 238 l 682 0 l 856 0 l 657 1015 l 481 1015 l -40 0 z m 508 724 b 540 799 521 750 533 781 b 550 724 540 779 546 744 l 613 383 l 338 383 z "},"Ä":{"ha":925,"x_min":0,"x_max":0,"o":"m 464 1103 b 568 1210 519 1103 568 1153 b 492 1286 568 1254 538 1286 b 388 1179 435 1286 388 1238 b 464 1103 388 1133 418 1103 z m 704 1103 b 808 1210 761 1103 808 1153 b 732 1286 808 1256 778 1286 b 628 1179 676 1286 628 1238 b 704 1103 628 1133 658 1103 z m 146 0 l 265 238 l 639 238 l 682 0 l 856 0 l 657 1015 l 481 1015 l -40 0 z m 508 724 b 540 799 521 750 533 781 b 550 724 540 779 546 744 l 613 383 l 338 383 z "},"À":{"ha":925,"x_min":0,"x_max":0,"o":"m 638 1088 l 571 1289 l 425 1289 l 524 1088 z m 146 0 l 265 238 l 639 238 l 682 0 l 856 0 l 657 1015 l 481 1015 l -40 0 z m 508 724 b 540 799 521 750 533 781 b 550 724 540 779 546 744 l 613 383 l 338 383 z "},"Ā":{"ha":925,"x_min":0,"x_max":0,"o":"m 408 1140 l 771 1140 l 789 1256 l 426 1256 z m 146 0 l 265 238 l 639 238 l 682 0 l 856 0 l 657 1015 l 481 1015 l -40 0 z m 508 724 b 540 799 521 750 533 781 b 550 724 540 779 546 744 l 613 383 l 338 383 z "},"Ą":{"ha":925,"x_min":0,"x_max":0,"o":"m 146 0 l 265 238 l 639 238 l 682 0 l 756 0 b 624 -161 675 -31 624 -93 b 740 -268 624 -222 667 -268 b 808 -256 768 -268 788 -264 l 826 -146 b 786 -154 813 -151 796 -154 b 742 -112 758 -154 742 -136 b 856 0 742 -71 786 -24 l 657 1015 l 481 1015 l -40 0 z m 508 724 b 540 799 521 750 533 781 b 550 724 540 779 546 744 l 613 383 l 338 383 z "},"Å":{"ha":925,"x_min":0,"x_max":0,"o":"m 586 1071 b 783 1268 697 1071 783 1156 b 625 1421 783 1357 717 1421 b 431 1219 515 1421 431 1335 b 586 1071 431 1132 493 1071 z m 596 1161 b 526 1232 554 1161 526 1189 b 617 1331 526 1289 565 1331 b 688 1260 658 1331 688 1303 b 596 1161 688 1203 649 1161 z m 146 0 l 265 238 l 639 238 l 682 0 l 856 0 l 657 1015 l 481 1015 l -40 0 z m 508 724 b 540 799 521 750 533 781 b 550 724 540 779 546 744 l 613 383 l 338 383 z "},"Ǻ":{"ha":925,"x_min":0,"x_max":0,"o":"m 843 1510 l 686 1510 l 553 1308 l 679 1308 z m 146 0 l 265 238 l 639 238 l 682 0 l 856 0 l 668 956 b 761 1125 725 990 761 1051 b 604 1278 761 1214 696 1278 b 408 1076 493 1278 408 1192 b 456 965 408 1031 425 992 l -40 0 z m 574 1017 b 504 1089 532 1017 504 1046 b 596 1188 504 1146 543 1188 b 665 1117 638 1188 665 1158 b 574 1017 665 1060 626 1017 z m 508 724 b 540 799 521 750 533 781 b 550 724 540 779 546 744 l 613 383 l 338 383 z "},"Ã":{"ha":925,"x_min":0,"x_max":0,"o":"m 451 1097 b 511 1179 460 1154 475 1179 b 690 1097 571 1179 596 1097 b 842 1290 781 1097 832 1165 l 742 1290 b 681 1208 735 1235 719 1208 b 501 1290 614 1208 590 1290 b 351 1097 417 1290 358 1217 z m 146 0 l 265 238 l 639 238 l 682 0 l 856 0 l 657 1015 l 481 1015 l -40 0 z m 508 724 b 540 799 521 750 533 781 b 550 724 540 779 546 744 l 613 383 l 338 383 z "},"Æ":{"ha":1278,"x_min":0,"x_max":0,"o":"m -47 0 l 146 0 l 282 256 l 568 256 l 528 0 l 1143 0 l 1168 160 l 724 160 l 767 435 l 1165 435 l 1190 588 l 792 588 l 833 856 l 1279 856 l 1303 1015 l 513 1015 z m 361 401 l 603 856 l 663 856 l 590 401 z "},"Ǽ":{"ha":1278,"x_min":0,"x_max":0,"o":"m 1113 1289 l 956 1289 l 822 1088 l 949 1088 z m -47 0 l 146 0 l 282 256 l 568 256 l 528 0 l 1143 0 l 1168 160 l 724 160 l 767 435 l 1165 435 l 1190 588 l 792 588 l 833 856 l 1279 856 l 1303 1015 l 513 1015 z m 361 401 l 603 856 l 663 856 l 590 401 z "},"B":{"ha":889,"x_min":0,"x_max":0,"o":"m 58 0 l 461 0 b 831 307 690 0 831 117 b 704 500 831 401 785 469 b 885 769 817 544 885 643 b 614 1015 885 918 778 1015 l 219 1015 z m 572 864 b 711 742 660 864 711 818 b 536 581 711 643 643 581 l 321 581 l 365 864 z m 510 433 b 656 307 604 433 656 388 b 468 151 656 210 586 151 l 253 151 l 297 433 z "},"C":{"ha":1039,"x_min":0,"x_max":0,"o":"m 510 -17 b 992 339 744 -17 911 106 l 804 339 b 515 151 749 207 653 151 b 258 440 356 151 258 267 b 608 865 258 685 397 865 b 850 675 736 865 832 800 l 1031 675 b 628 1032 1021 886 867 1032 b 78 431 311 1032 78 782 b 510 -17 78 168 239 -17 z "},"Ć":{"ha":1039,"x_min":0,"x_max":0,"o":"m 871 1289 l 714 1289 l 581 1088 l 707 1088 z m 510 -17 b 992 339 744 -17 911 106 l 804 339 b 515 151 749 207 653 151 b 258 440 356 151 258 267 b 608 865 258 685 397 865 b 850 675 736 865 832 800 l 1031 675 b 628 1032 1021 886 867 1032 b 78 431 311 1032 78 782 b 510 -17 78 168 239 -17 z "},"Č":{"ha":1039,"x_min":0,"x_max":0,"o":"m 567 1089 l 735 1089 l 890 1301 l 756 1301 l 657 1165 l 600 1301 l 478 1301 z m 510 -17 b 992 339 744 -17 911 106 l 804 339 b 515 151 749 207 653 151 b 258 440 356 151 258 267 b 608 865 258 685 397 865 b 850 675 736 865 832 800 l 1031 675 b 628 1032 1021 886 867 1032 b 78 431 311 1032 78 782 b 510 -17 78 168 239 -17 z "},"Ç":{"ha":1039,"x_min":0,"x_max":0,"o":"m 361 -269 b 465 -294 385 -283 422 -294 b 632 -153 567 -294 632 -239 b 533 -57 632 -90 581 -57 b 494 -62 518 -57 506 -60 l 524 -17 b 992 339 751 -11 913 110 l 804 339 b 515 151 749 207 653 151 b 258 440 356 151 258 267 b 608 865 258 685 397 865 b 850 675 736 865 832 800 l 1031 675 b 628 1032 1021 886 867 1032 b 78 431 311 1032 78 782 b 456 -14 78 186 218 8 l 411 -85 l 421 -131 b 490 -118 444 -122 465 -118 b 540 -161 522 -118 540 -133 b 461 -218 540 -197 510 -218 b 374 -193 429 -218 401 -208 z "},"Ĉ":{"ha":1039,"x_min":0,"x_max":0,"o":"m 572 1086 l 671 1222 l 728 1086 l 849 1086 l 761 1299 l 593 1299 l 438 1086 z m 510 -17 b 992 339 744 -17 911 106 l 804 339 b 515 151 749 207 653 151 b 258 440 356 151 258 267 b 608 865 258 685 397 865 b 850 675 736 865 832 800 l 1031 675 b 628 1032 1021 886 867 1032 b 78 431 311 1032 78 782 b 510 -17 78 168 239 -17 z "},"Ċ":{"ha":1039,"x_min":0,"x_max":0,"o":"m 646 1103 b 756 1214 704 1103 756 1154 b 675 1294 756 1263 722 1294 b 565 1183 617 1294 565 1244 b 646 1103 565 1135 597 1103 z m 510 -17 b 992 339 744 -17 911 106 l 804 339 b 515 151 749 207 653 151 b 258 440 356 151 258 267 b 608 865 258 685 397 865 b 850 675 736 865 832 800 l 1031 675 b 628 1032 1021 886 867 1032 b 78 431 311 1032 78 782 b 510 -17 78 168 239 -17 z "},"D":{"ha":1017,"x_min":0,"x_max":0,"o":"m 414 0 b 989 561 749 0 989 222 b 551 1015 989 824 810 1015 l 219 1015 l 58 0 z m 521 857 b 807 561 699 857 807 738 b 425 160 807 311 651 160 l 254 160 l 365 857 z "},"Ð":{"ha":1017,"x_min":0,"x_max":0,"o":"m 414 0 b 989 561 749 0 989 222 b 551 1015 989 824 810 1015 l 219 1015 l 150 579 l 60 579 l 38 436 l 128 436 l 58 0 z m 503 436 l 525 579 l 321 579 l 365 857 l 521 857 b 807 561 699 857 807 738 b 425 160 807 311 651 160 l 254 160 l 299 436 z "},"Ď":{"ha":1017,"x_min":0,"x_max":0,"o":"m 479 1089 l 647 1089 l 803 1301 l 668 1301 l 569 1165 l 513 1301 l 390 1301 z m 414 0 b 989 561 749 0 989 222 b 551 1015 989 824 810 1015 l 219 1015 l 58 0 z m 521 857 b 807 561 699 857 807 738 b 425 160 807 311 651 160 l 254 160 l 365 857 z "},"Đ":{"ha":1017,"x_min":0,"x_max":0,"o":"m 414 0 b 989 561 749 0 989 222 b 551 1015 989 824 810 1015 l 219 1015 l 150 579 l 60 579 l 38 436 l 128 436 l 58 0 z m 503 436 l 525 579 l 321 579 l 365 857 l 521 857 b 807 561 699 857 807 738 b 425 160 807 311 651 160 l 254 160 l 299 436 z "},"E":{"ha":811,"x_min":0,"x_max":0,"o":"m 676 0 l 701 160 l 254 160 l 297 435 l 697 435 l 721 588 l 322 588 l 365 856 l 811 856 l 836 1015 l 219 1015 l 58 0 z "},"É":{"ha":811,"x_min":0,"x_max":0,"o":"m 764 1289 l 607 1289 l 474 1088 l 600 1088 z m 676 0 l 701 160 l 254 160 l 297 435 l 697 435 l 721 588 l 322 588 l 365 856 l 811 856 l 836 1015 l 219 1015 l 58 0 z "},"Ĕ":{"ha":811,"x_min":0,"x_max":0,"o":"m 651 1292 b 553 1189 642 1226 611 1189 b 467 1292 494 1189 467 1226 l 350 1292 b 544 1076 350 1158 417 1076 b 771 1292 682 1076 750 1160 z m 676 0 l 701 160 l 254 160 l 297 435 l 697 435 l 721 588 l 322 588 l 365 856 l 811 856 l 836 1015 l 219 1015 l 58 0 z "},"Ě":{"ha":811,"x_min":0,"x_max":0,"o":"m 458 1089 l 628 1089 l 782 1301 l 649 1301 l 549 1165 l 493 1301 l 371 1301 z m 676 0 l 701 160 l 254 160 l 297 435 l 697 435 l 721 588 l 322 588 l 365 856 l 811 856 l 836 1015 l 219 1015 l 58 0 z "},"Ê":{"ha":811,"x_min":0,"x_max":0,"o":"m 464 1088 l 564 1222 l 619 1088 l 742 1088 l 653 1299 l 485 1299 l 331 1088 z m 676 0 l 701 160 l 254 160 l 297 435 l 697 435 l 721 588 l 322 588 l 365 856 l 811 856 l 836 1015 l 219 1015 l 58 0 z "},"Ë":{"ha":811,"x_min":0,"x_max":0,"o":"m 419 1103 b 524 1210 475 1103 524 1153 b 447 1286 524 1254 492 1286 b 342 1179 390 1286 342 1238 b 419 1103 342 1133 372 1103 z m 660 1103 b 764 1210 717 1103 764 1153 b 688 1286 764 1256 732 1286 b 583 1179 631 1286 583 1238 b 660 1103 583 1133 613 1103 z m 676 0 l 701 160 l 254 160 l 297 435 l 697 435 l 721 588 l 322 588 l 365 856 l 811 856 l 836 1015 l 219 1015 l 58 0 z "},"Ė":{"ha":811,"x_min":0,"x_max":0,"o":"m 538 1103 b 647 1214 597 1103 647 1154 b 568 1294 647 1263 615 1294 b 458 1183 508 1294 458 1244 b 538 1103 458 1135 490 1103 z m 676 0 l 701 160 l 254 160 l 297 435 l 697 435 l 721 588 l 322 588 l 365 856 l 811 856 l 836 1015 l 219 1015 l 58 0 z "},"È":{"ha":811,"x_min":0,"x_max":0,"o":"m 593 1088 l 525 1289 l 381 1289 l 479 1088 z m 676 0 l 701 160 l 254 160 l 297 435 l 697 435 l 721 588 l 322 588 l 365 856 l 811 856 l 836 1015 l 219 1015 l 58 0 z "},"Ē":{"ha":811,"x_min":0,"x_max":0,"o":"m 364 1140 l 726 1140 l 744 1256 l 382 1256 z m 676 0 l 701 160 l 254 160 l 297 435 l 697 435 l 721 588 l 322 588 l 365 856 l 811 856 l 836 1015 l 219 1015 l 58 0 z "},"Ę":{"ha":811,"x_min":0,"x_max":0,"o":"m 575 0 b 444 -161 496 -31 444 -93 b 560 -268 444 -222 486 -268 b 629 -256 588 -268 608 -264 l 647 -146 b 607 -154 632 -151 617 -154 b 563 -112 579 -154 563 -136 b 675 0 563 -71 607 -24 l 676 0 l 701 160 l 254 160 l 297 435 l 697 435 l 721 588 l 322 588 l 365 856 l 811 856 l 836 1015 l 219 1015 l 58 0 z "},"F":{"ha":775,"x_min":0,"x_max":0,"o":"m 668 417 l 692 572 l 319 572 l 364 857 l 808 857 l 832 1015 l 219 1015 l 58 0 l 229 0 l 294 417 z "},"G":{"ha":1071,"x_min":0,"x_max":0,"o":"m 608 868 b 847 690 744 868 828 804 l 1031 690 b 628 1032 1015 900 858 1032 b 78 431 310 1032 78 779 b 510 -17 78 160 247 -17 b 803 114 631 -17 746 35 l 794 0 l 938 0 l 1028 569 l 567 569 l 542 417 l 846 417 l 844 410 b 533 146 818 243 706 146 b 258 440 364 146 258 258 b 608 868 258 690 403 868 z "},"Ğ":{"ha":1071,"x_min":0,"x_max":0,"o":"m 749 1292 b 650 1189 738 1228 708 1189 b 563 1292 592 1189 563 1226 l 446 1292 b 642 1076 446 1158 513 1076 b 868 1292 779 1076 847 1160 z m 608 868 b 847 690 744 868 828 804 l 1031 690 b 628 1032 1015 900 858 1032 b 78 431 310 1032 78 779 b 510 -17 78 160 247 -17 b 803 114 631 -17 746 35 l 794 0 l 938 0 l 1028 569 l 567 569 l 542 417 l 846 417 l 844 410 b 533 146 818 243 706 146 b 258 440 364 146 258 258 b 608 868 258 690 403 868 z "},"Ĝ":{"ha":1071,"x_min":0,"x_max":0,"o":"m 561 1088 l 660 1224 l 717 1088 l 839 1088 l 750 1300 l 582 1300 l 426 1088 z m 608 868 b 847 690 744 868 828 804 l 1031 690 b 628 1032 1015 900 858 1032 b 78 431 310 1032 78 779 b 510 -17 78 160 247 -17 b 803 114 631 -17 746 35 l 794 0 l 938 0 l 1028 569 l 567 569 l 542 417 l 846 417 l 844 410 b 533 146 818 243 706 146 b 258 440 364 146 258 258 b 608 868 258 690 403 868 z "},"Ģ":{"ha":1071,"x_min":0,"x_max":0,"o":"m 608 868 b 847 690 744 868 828 804 l 1031 690 b 628 1032 1015 900 858 1032 b 78 431 310 1032 78 779 b 510 -17 78 160 247 -17 b 803 114 631 -17 746 35 l 794 0 l 938 0 l 1028 569 l 567 569 l 542 417 l 846 417 l 844 410 b 533 146 818 243 706 146 b 258 440 364 146 258 258 b 608 868 258 690 403 868 z m 571 -135 b 496 -50 571 -83 542 -50 b 396 -146 440 -50 396 -92 b 458 -208 396 -182 421 -208 b 490 -201 471 -208 482 -207 b 390 -254 481 -242 449 -260 l 382 -310 b 571 -135 493 -321 571 -237 z "},"Ġ":{"ha":1071,"x_min":0,"x_max":0,"o":"m 635 1104 b 744 1214 694 1104 744 1156 b 665 1294 744 1263 713 1294 b 556 1183 606 1294 556 1244 b 635 1104 556 1135 586 1104 z m 608 868 b 847 690 744 868 828 804 l 1031 690 b 628 1032 1015 900 858 1032 b 78 431 310 1032 78 779 b 510 -17 78 160 247 -17 b 803 114 631 -17 746 35 l 794 0 l 938 0 l 1028 569 l 567 569 l 542 417 l 846 417 l 844 410 b 533 146 818 243 706 146 b 258 440 364 146 258 258 b 608 868 258 690 403 868 z "},"H":{"ha":1013,"x_min":0,"x_max":0,"o":"m 229 0 l 299 433 l 743 433 l 675 0 l 846 0 l 1006 1015 l 835 1015 l 768 592 l 322 592 l 389 1015 l 219 1015 l 58 0 z "},"Ħ":{"ha":1013,"x_min":0,"x_max":0,"o":"m 229 0 l 299 433 l 743 433 l 675 0 l 846 0 l 963 743 l 1071 743 l 1094 889 l 986 889 l 1006 1015 l 835 1015 l 815 889 l 369 889 l 389 1015 l 219 1015 l 200 889 l 93 889 l 69 743 l 176 743 l 58 0 z m 322 592 l 346 743 l 792 743 l 768 592 z "},"I":{"ha":396,"x_min":0,"x_max":0,"o":"m 389 1015 l 219 1015 l 58 0 l 229 0 z "},"Í":{"ha":396,"x_min":0,"x_max":0,"o":"m 543 1289 l 386 1289 l 253 1088 l 379 1088 z m 389 1015 l 219 1015 l 58 0 l 229 0 z "},"Î":{"ha":396,"x_min":0,"x_max":0,"o":"m 243 1088 l 343 1222 l 399 1088 l 521 1088 l 433 1299 l 264 1299 l 110 1088 z m 389 1015 l 219 1015 l 58 0 l 229 0 z "},"Ï":{"ha":396,"x_min":0,"x_max":0,"o":"m 199 1103 b 303 1210 254 1103 303 1153 b 226 1286 303 1254 271 1286 b 121 1179 169 1286 121 1238 b 199 1103 121 1133 151 1103 z m 439 1103 b 543 1210 496 1103 543 1153 b 467 1286 543 1256 513 1286 b 363 1179 411 1286 363 1238 b 439 1103 363 1133 393 1103 z m 389 1015 l 219 1015 l 58 0 l 229 0 z "},"İ":{"ha":396,"x_min":0,"x_max":0,"o":"m 317 1103 b 426 1214 376 1103 426 1154 b 347 1294 426 1263 394 1294 b 238 1183 288 1294 238 1244 b 317 1103 238 1135 269 1103 z m 389 1015 l 219 1015 l 58 0 l 229 0 z "},"Ì":{"ha":396,"x_min":0,"x_max":0,"o":"m 372 1088 l 304 1289 l 160 1289 l 258 1088 z m 389 1015 l 219 1015 l 58 0 l 229 0 z "},"Ī":{"ha":396,"x_min":0,"x_max":0,"o":"m 143 1140 l 506 1140 l 524 1256 l 161 1256 z m 389 1015 l 219 1015 l 58 0 l 229 0 z "},"Į":{"ha":396,"x_min":0,"x_max":0,"o":"m 128 0 b -3 -161 49 -31 -3 -93 b 113 -268 -3 -222 39 -268 b 182 -256 140 -268 161 -264 l 200 -146 b 160 -154 185 -151 169 -154 b 115 -112 132 -154 115 -136 b 228 0 115 -71 160 -24 l 229 0 l 389 1015 l 219 1015 l 58 0 z "},"Ĩ":{"ha":396,"x_min":0,"x_max":0,"o":"m 186 1097 b 246 1179 193 1154 210 1179 b 425 1097 306 1179 331 1097 b 576 1290 515 1097 565 1165 l 476 1290 b 415 1208 469 1235 454 1208 b 235 1290 349 1208 325 1290 b 86 1097 151 1290 93 1217 z m 389 1015 l 219 1015 l 58 0 l 229 0 z "},"J":{"ha":750,"x_min":0,"x_max":0,"o":"m 22 288 b 306 -18 1 103 113 -18 b 635 282 494 -18 604 82 l 751 1015 l 582 1015 l 467 292 b 311 143 450 189 403 143 b 188 288 222 143 176 197 l 193 346 l 28 346 z "},"Ĵ":{"ha":750,"x_min":0,"x_max":0,"o":"m 607 1088 l 706 1224 l 763 1088 l 883 1088 l 796 1300 l 628 1300 l 472 1088 z m 22 288 b 306 -18 1 103 113 -18 b 635 282 494 -18 604 82 l 751 1015 l 582 1015 l 467 292 b 311 143 450 189 403 143 b 188 288 222 143 176 197 l 193 346 l 28 346 z "},"K":{"ha":917,"x_min":0,"x_max":0,"o":"m 389 1015 l 219 1015 l 58 0 l 229 0 l 264 217 l 474 446 l 654 0 l 842 0 l 601 585 l 999 1015 l 788 1015 l 307 492 z "},"Ķ":{"ha":917,"x_min":0,"x_max":0,"o":"m 389 1015 l 219 1015 l 58 0 l 229 0 l 264 217 l 474 446 l 654 0 l 842 0 l 601 585 l 999 1015 l 788 1015 l 307 492 z m 489 -135 b 414 -50 489 -83 460 -50 b 314 -146 358 -50 314 -92 b 376 -208 314 -182 339 -208 b 408 -201 389 -208 400 -207 b 308 -254 399 -242 365 -260 l 300 -310 b 489 -135 411 -321 489 -237 z "},"L":{"ha":735,"x_min":0,"x_max":0,"o":"m 389 1015 l 219 1015 l 58 0 l 647 0 l 672 160 l 254 160 z "},"Ĺ":{"ha":735,"x_min":0,"x_max":0,"o":"m 542 1271 l 385 1271 l 250 1068 l 376 1068 z m 389 1015 l 219 1015 l 58 0 l 647 0 l 672 160 l 254 160 z "},"Ľ":{"ha":735,"x_min":0,"x_max":0,"o":"m 389 1015 l 219 1015 l 58 0 l 647 0 l 672 160 l 254 160 z m 419 765 l 518 765 l 594 1014 l 458 1014 z "},"Ļ":{"ha":735,"x_min":0,"x_max":0,"o":"m 389 1015 l 219 1015 l 58 0 l 647 0 l 672 160 l 254 160 z m 424 -135 b 349 -50 424 -83 394 -50 b 249 -146 293 -50 249 -92 b 311 -208 249 -182 274 -208 b 343 -201 322 -208 333 -207 b 243 -254 333 -240 300 -260 l 235 -310 b 424 -135 346 -321 424 -237 z "},"Ŀ":{"ha":735,"x_min":0,"x_max":0,"o":"m 389 1015 l 219 1015 l 58 0 l 647 0 l 672 160 l 254 160 z m 496 408 b 592 504 549 408 592 453 b 496 600 592 556 549 600 b 399 504 443 600 399 557 b 496 408 399 453 444 408 z "},"Ł":{"ha":735,"x_min":0,"x_max":0,"o":"m 25 346 l 119 389 l 58 0 l 647 0 l 672 160 l 254 160 l 303 472 l 518 569 l 540 703 l 325 606 l 389 1015 l 219 1015 l 142 522 l 46 479 z "},"M":{"ha":1206,"x_min":0,"x_max":0,"o":"m 225 0 l 285 372 b 317 658 301 478 317 586 l 468 0 l 628 0 l 986 660 b 931 372 972 607 953 513 l 872 0 l 1039 0 l 1200 1015 l 1024 1015 l 572 201 l 379 1015 l 219 1015 l 58 0 z "},"N":{"ha":1033,"x_min":0,"x_max":0,"o":"m 229 0 l 343 726 l 697 0 l 867 0 l 1028 1015 l 857 1015 l 743 289 l 389 1015 l 219 1015 l 58 0 z "},"Ń":{"ha":1033,"x_min":0,"x_max":0,"o":"m 867 1289 l 710 1289 l 576 1088 l 703 1088 z m 229 0 l 343 726 l 697 0 l 867 0 l 1028 1015 l 857 1015 l 743 289 l 389 1015 l 219 1015 l 58 0 z "},"Ň":{"ha":1033,"x_min":0,"x_max":0,"o":"m 563 1089 l 731 1089 l 886 1301 l 751 1301 l 653 1165 l 596 1301 l 474 1301 z m 229 0 l 343 726 l 697 0 l 867 0 l 1028 1015 l 857 1015 l 743 289 l 389 1015 l 219 1015 l 58 0 z "},"Ņ":{"ha":1033,"x_min":0,"x_max":0,"o":"m 229 0 l 343 726 l 697 0 l 867 0 l 1028 1015 l 857 1015 l 743 289 l 389 1015 l 219 1015 l 58 0 z m 533 -135 b 458 -50 533 -83 504 -50 b 358 -146 403 -50 358 -92 b 421 -208 358 -182 383 -208 b 453 -201 433 -208 444 -207 b 353 -254 443 -242 410 -260 l 344 -310 b 533 -135 456 -321 533 -237 z "},"Ŋ":{"ha":1033,"x_min":0,"x_max":0,"o":"m 588 -336 b 849 -107 732 -336 826 -251 l 1028 1015 l 857 1015 l 743 285 l 389 1015 l 219 1015 l 58 0 l 229 0 l 342 729 l 701 -10 l 688 -89 b 586 -185 676 -153 651 -185 b 519 -172 565 -185 542 -179 l 471 -318 b 588 -336 511 -332 546 -336 z "},"Ñ":{"ha":1033,"x_min":0,"x_max":0,"o":"m 510 1097 b 569 1179 518 1154 533 1179 b 749 1097 629 1179 654 1097 b 900 1290 839 1097 890 1165 l 800 1290 b 739 1208 793 1235 778 1208 b 560 1290 672 1208 649 1290 b 410 1097 475 1290 417 1217 z m 229 0 l 343 726 l 697 0 l 867 0 l 1028 1015 l 857 1015 l 743 289 l 389 1015 l 219 1015 l 58 0 z "},"O":{"ha":1076,"x_min":0,"x_max":0,"o":"m 1053 588 b 618 1032 1053 851 878 1032 b 75 426 310 1032 75 767 b 510 -17 75 163 250 -17 b 1053 588 817 -17 1053 249 z m 871 572 b 525 150 871 336 721 150 b 257 443 360 150 257 264 b 603 865 257 679 407 865 b 871 572 769 865 871 754 z "},"Ó":{"ha":1076,"x_min":0,"x_max":0,"o":"m 881 1289 l 724 1289 l 590 1088 l 717 1088 z m 1053 588 b 618 1032 1053 851 878 1032 b 75 426 310 1032 75 767 b 510 -17 75 163 250 -17 b 1053 588 817 -17 1053 249 z m 871 572 b 525 150 871 336 721 150 b 257 443 360 150 257 264 b 603 865 257 679 407 865 b 871 572 769 865 871 754 z "},"Ô":{"ha":1076,"x_min":0,"x_max":0,"o":"m 581 1088 l 681 1224 l 736 1088 l 858 1088 l 769 1300 l 601 1300 l 447 1088 z m 1053 588 b 618 1032 1053 851 878 1032 b 75 426 310 1032 75 767 b 510 -17 75 163 250 -17 b 1053 588 817 -17 1053 249 z m 871 572 b 525 150 871 336 721 150 b 257 443 360 150 257 264 b 603 865 257 679 407 865 b 871 572 769 865 871 754 z "},"Ö":{"ha":1076,"x_min":0,"x_max":0,"o":"m 536 1104 b 640 1210 592 1104 640 1153 b 564 1288 640 1254 608 1288 b 458 1181 507 1288 458 1239 b 536 1104 458 1135 489 1104 z m 776 1104 b 881 1210 833 1104 881 1153 b 804 1288 881 1256 849 1288 b 700 1181 747 1288 700 1239 b 776 1104 700 1135 729 1104 z m 1053 588 b 618 1032 1053 851 878 1032 b 75 426 310 1032 75 767 b 510 -17 75 163 250 -17 b 1053 588 817 -17 1053 249 z m 871 572 b 525 150 871 336 721 150 b 257 443 360 150 257 264 b 603 865 257 679 407 865 b 871 572 769 865 871 754 z "},"Ò":{"ha":1076,"x_min":0,"x_max":0,"o":"m 710 1088 l 642 1290 l 497 1290 l 596 1088 z m 1053 588 b 618 1032 1053 851 878 1032 b 75 426 310 1032 75 767 b 510 -17 75 163 250 -17 b 1053 588 817 -17 1053 249 z m 871 572 b 525 150 871 336 721 150 b 257 443 360 150 257 264 b 603 865 257 679 407 865 b 871 572 769 865 871 754 z "},"Ő":{"ha":1076,"x_min":0,"x_max":0,"o":"m 779 1289 l 639 1289 l 497 1088 l 617 1088 z m 989 1289 l 847 1289 l 699 1088 l 818 1088 z m 1053 588 b 618 1032 1053 851 878 1032 b 75 426 310 1032 75 767 b 510 -17 75 163 250 -17 b 1053 588 817 -17 1053 249 z m 871 572 b 525 150 871 336 721 150 b 257 443 360 150 257 264 b 603 865 257 679 407 865 b 871 572 769 865 871 754 z "},"Ō":{"ha":1076,"x_min":0,"x_max":0,"o":"m 481 1140 l 843 1140 l 861 1256 l 499 1256 z m 1053 588 b 618 1032 1053 851 878 1032 b 75 426 310 1032 75 767 b 510 -17 75 163 250 -17 b 1053 588 817 -17 1053 249 z m 871 572 b 525 150 871 336 721 150 b 257 443 360 150 257 264 b 603 865 257 679 407 865 b 871 572 769 865 871 754 z "},"Ø":{"ha":1076,"x_min":0,"x_max":0,"o":"m 1053 588 b 969 865 1053 697 1022 792 l 1103 1015 l 946 1015 l 886 949 b 618 1032 815 1003 724 1032 b 75 426 310 1032 75 767 b 161 146 75 315 106 219 l 31 1 l 194 1 l 247 61 b 510 -17 318 11 407 -17 b 1053 588 817 -17 1053 249 z m 257 443 b 603 865 257 679 407 865 b 767 817 668 865 724 849 l 289 288 b 257 443 268 332 257 383 z m 871 572 b 525 150 871 336 721 150 b 368 196 464 150 410 165 l 842 724 b 871 572 861 681 871 631 z "},"Ǿ":{"ha":1076,"x_min":0,"x_max":0,"o":"m 858 1276 l 701 1276 l 568 1075 l 694 1075 z m 1053 588 b 969 865 1053 697 1022 792 l 1103 1015 l 946 1015 l 886 949 b 618 1032 815 1003 724 1032 b 75 426 310 1032 75 767 b 161 146 75 315 106 219 l 31 1 l 194 1 l 247 61 b 510 -17 318 11 407 -17 b 1053 588 817 -17 1053 249 z m 257 443 b 603 865 257 679 407 865 b 767 817 668 865 724 849 l 289 288 b 257 443 268 332 257 383 z m 871 572 b 525 150 871 336 721 150 b 368 196 464 150 410 165 l 842 724 b 871 572 861 681 871 631 z "},"Õ":{"ha":1076,"x_min":0,"x_max":0,"o":"m 524 1097 b 583 1179 531 1154 547 1179 b 763 1097 643 1179 668 1097 b 914 1292 853 1097 903 1167 l 814 1292 b 753 1210 807 1235 792 1210 b 572 1292 686 1210 663 1292 b 424 1097 489 1292 431 1217 z m 1053 588 b 618 1032 1053 851 878 1032 b 75 426 310 1032 75 767 b 510 -17 75 163 250 -17 b 1053 588 817 -17 1053 249 z m 871 572 b 525 150 871 336 721 150 b 257 443 360 150 257 264 b 603 865 257 679 407 865 b 871 572 769 865 871 754 z "},"Œ":{"ha":1539,"x_min":0,"x_max":0,"o":"m 75 426 b 500 -17 75 163 250 -17 b 806 107 618 -17 738 33 l 788 0 l 1404 0 l 1429 160 l 983 160 l 1028 435 l 1426 435 l 1450 588 l 1051 588 l 1094 856 l 1540 856 l 1565 1015 l 949 1015 l 926 876 b 618 1032 865 975 764 1032 b 75 426 310 1032 75 767 z m 257 443 b 603 865 257 679 407 865 b 871 572 769 865 871 754 b 515 150 871 336 711 150 b 257 443 360 150 257 264 z "},"P":{"ha":871,"x_min":0,"x_max":0,"o":"m 503 351 b 888 722 732 351 888 503 b 585 1015 888 900 768 1015 l 219 1015 l 58 0 l 229 0 l 285 351 z m 542 861 b 711 707 649 861 711 803 b 492 506 711 579 629 506 l 308 506 l 365 861 z "},"Þ":{"ha":869,"x_min":0,"x_max":0,"o":"m 474 193 b 858 542 704 193 858 333 b 556 828 858 717 739 828 l 360 828 l 389 1015 l 219 1015 l 58 0 l 229 0 l 260 193 z m 513 674 b 682 526 618 674 682 621 b 463 346 682 413 601 346 l 283 346 l 335 674 z "},"Q":{"ha":1076,"x_min":0,"x_max":0,"o":"m 828 -75 l 944 14 l 865 126 b 1053 588 981 236 1053 400 b 618 1032 1053 851 878 1032 b 75 426 310 1032 75 767 b 510 -17 75 163 250 -17 b 746 40 594 -17 675 4 z m 871 572 b 765 265 871 450 831 342 l 654 421 l 538 331 l 649 176 b 525 150 610 160 568 150 b 257 443 360 150 257 264 b 603 865 257 679 407 865 b 871 572 769 865 871 754 z "},"R":{"ha":913,"x_min":0,"x_max":0,"o":"m 229 0 l 289 382 l 506 382 l 626 0 l 803 0 l 669 417 b 904 733 818 475 904 592 b 593 1015 904 906 783 1015 l 219 1015 l 58 0 z m 365 861 l 567 861 b 726 719 667 861 726 810 b 519 533 726 604 647 533 l 314 533 z "},"Ŕ":{"ha":913,"x_min":0,"x_max":0,"o":"m 774 1289 l 617 1289 l 482 1088 l 608 1088 z m 229 0 l 289 382 l 506 382 l 626 0 l 803 0 l 669 417 b 904 733 818 475 904 592 b 593 1015 904 906 783 1015 l 219 1015 l 58 0 z m 365 861 l 567 861 b 726 719 667 861 726 810 b 519 533 726 604 647 533 l 314 533 z "},"Ř":{"ha":913,"x_min":0,"x_max":0,"o":"m 468 1089 l 636 1089 l 792 1301 l 657 1301 l 558 1165 l 501 1301 l 381 1301 z m 229 0 l 289 382 l 506 382 l 626 0 l 803 0 l 669 417 b 904 733 818 475 904 592 b 593 1015 904 906 783 1015 l 219 1015 l 58 0 z m 365 861 l 567 861 b 726 719 667 861 726 810 b 519 533 726 604 647 533 l 314 533 z "},"Ŗ":{"ha":913,"x_min":0,"x_max":0,"o":"m 229 0 l 289 382 l 506 382 l 626 0 l 803 0 l 669 417 b 904 733 818 475 904 592 b 593 1015 904 906 783 1015 l 219 1015 l 58 0 z m 365 861 l 567 861 b 726 719 667 861 726 810 b 519 533 726 604 647 533 l 314 533 z m 486 -135 b 411 -50 486 -83 457 -50 b 311 -146 356 -50 311 -92 b 374 -208 311 -182 336 -208 b 407 -201 386 -208 399 -206 b 306 -254 397 -240 364 -260 l 297 -310 b 486 -135 408 -321 486 -237 z "},"S":{"ha":807,"x_min":0,"x_max":0,"o":"m 106 714 b 331 449 106 586 183 494 l 479 403 b 585 282 556 379 585 346 b 393 136 585 193 510 136 b 201 279 279 136 210 189 l 29 279 b 388 -18 40 92 174 -18 b 753 297 607 -18 753 108 b 540 554 753 426 685 508 l 393 600 b 275 736 311 626 275 668 b 454 881 275 826 343 881 b 633 736 557 881 624 826 l 804 736 b 461 1033 796 910 653 1033 b 106 714 249 1033 106 907 z "},"Ś":{"ha":807,"x_min":0,"x_max":0,"o":"m 714 1289 l 557 1289 l 422 1088 l 549 1088 z m 106 714 b 331 449 106 586 183 494 l 479 403 b 585 282 556 379 585 346 b 393 136 585 193 510 136 b 201 279 279 136 210 189 l 29 279 b 388 -18 40 92 174 -18 b 753 297 607 -18 753 108 b 540 554 753 426 685 508 l 393 600 b 275 736 311 626 275 668 b 454 881 275 826 343 881 b 633 736 557 881 624 826 l 804 736 b 461 1033 796 910 653 1033 b 106 714 249 1033 106 907 z "},"Š":{"ha":807,"x_min":0,"x_max":0,"o":"m 408 1089 l 578 1089 l 732 1301 l 599 1301 l 499 1165 l 443 1301 l 321 1301 z m 106 714 b 331 449 106 586 183 494 l 479 403 b 585 282 556 379 585 346 b 393 136 585 193 510 136 b 201 279 279 136 210 189 l 29 279 b 388 -18 40 92 174 -18 b 753 297 607 -18 753 108 b 540 554 753 426 685 508 l 393 600 b 275 736 311 626 275 668 b 454 881 275 826 343 881 b 633 736 557 881 624 826 l 804 736 b 461 1033 796 910 653 1033 b 106 714 249 1033 106 907 z "},"Ş":{"ha":807,"x_min":0,"x_max":0,"o":"m 219 -269 b 322 -294 242 -283 279 -294 b 489 -153 424 -294 489 -239 b 390 -57 489 -90 438 -57 b 353 -62 375 -57 364 -58 l 382 -18 l 388 -18 b 753 297 607 -18 753 108 b 540 554 753 426 685 508 l 393 600 b 275 736 311 626 275 668 b 454 881 275 826 343 881 b 633 736 557 881 624 826 l 804 736 b 461 1033 796 910 653 1033 b 106 714 249 1033 106 907 b 331 449 106 586 183 494 l 479 403 b 585 282 556 379 585 346 b 393 136 585 193 510 136 b 201 279 279 136 210 189 l 29 279 b 314 -14 39 114 143 10 l 269 -85 l 278 -131 b 347 -118 301 -122 322 -118 b 399 -161 379 -118 399 -133 b 318 -218 399 -197 367 -218 b 231 -193 288 -218 258 -208 z "},"Ŝ":{"ha":807,"x_min":0,"x_max":0,"o":"m 414 1088 l 514 1224 l 569 1088 l 692 1088 l 603 1300 l 435 1300 l 281 1088 z m 106 714 b 331 449 106 586 183 494 l 479 403 b 585 282 556 379 585 346 b 393 136 585 193 510 136 b 201 279 279 136 210 189 l 29 279 b 388 -18 40 92 174 -18 b 753 297 607 -18 753 108 b 540 554 753 426 685 508 l 393 600 b 275 736 311 626 275 668 b 454 881 275 826 343 881 b 633 736 557 881 624 826 l 804 736 b 461 1033 796 910 653 1033 b 106 714 249 1033 106 907 z "},"Ș":{"ha":807,"x_min":0,"x_max":0,"o":"m 106 714 b 331 449 106 586 183 494 l 479 403 b 585 282 556 379 585 346 b 393 136 585 193 510 136 b 201 279 279 136 210 189 l 29 279 b 388 -18 40 92 174 -18 b 753 297 607 -18 753 108 b 540 554 753 426 685 508 l 393 600 b 275 736 311 626 275 668 b 454 881 275 826 343 881 b 633 736 557 881 624 826 l 804 736 b 461 1033 796 910 653 1033 b 106 714 249 1033 106 907 z m 422 -135 b 347 -50 422 -83 393 -50 b 247 -146 292 -50 247 -92 b 310 -208 247 -182 272 -208 b 342 -201 321 -208 332 -207 b 242 -254 332 -240 299 -260 l 233 -310 b 422 -135 344 -321 422 -237 z "},"T":{"ha":800,"x_min":0,"x_max":0,"o":"m 106 857 l 397 857 l 261 0 l 431 0 l 567 857 l 857 857 l 882 1015 l 131 1015 z "},"Ŧ":{"ha":800,"x_min":0,"x_max":0,"o":"m 186 454 l 333 454 l 261 0 l 431 0 l 503 454 l 653 454 l 675 596 l 525 596 l 567 857 l 857 857 l 882 1015 l 131 1015 l 106 857 l 397 857 l 356 596 l 208 596 z "},"Ť":{"ha":800,"x_min":0,"x_max":0,"o":"m 440 1089 l 608 1089 l 764 1301 l 629 1301 l 531 1165 l 474 1301 l 351 1301 z m 106 857 l 397 857 l 261 0 l 431 0 l 567 857 l 857 857 l 882 1015 l 131 1015 z "},"Ţ":{"ha":800,"x_min":0,"x_max":0,"o":"m 206 -269 b 310 -294 229 -283 267 -294 b 476 -153 411 -294 476 -239 b 378 -57 476 -90 425 -57 b 339 -62 363 -57 350 -60 l 379 0 l 431 0 l 567 857 l 857 857 l 882 1015 l 131 1015 l 106 857 l 397 857 l 261 0 l 310 0 l 256 -85 l 265 -131 b 335 -118 289 -122 310 -118 b 385 -161 367 -118 385 -133 b 306 -218 385 -197 354 -218 b 218 -193 274 -218 246 -208 z "},"Ț":{"ha":800,"x_min":0,"x_max":0,"o":"m 106 857 l 397 857 l 261 0 l 431 0 l 567 857 l 857 857 l 882 1015 l 131 1015 z m 408 -135 b 335 -50 408 -83 381 -50 b 235 -146 278 -50 235 -92 b 297 -208 235 -182 260 -208 b 329 -201 310 -208 321 -206 b 228 -254 319 -240 286 -260 l 219 -310 b 408 -135 331 -321 408 -237 z "},"U":{"ha":997,"x_min":0,"x_max":0,"o":"m 111 378 b 457 -17 75 144 229 -17 b 894 368 701 -17 856 125 l 999 1015 l 828 1015 l 726 379 b 471 149 703 232 611 149 b 283 379 329 149 260 235 l 383 1015 l 213 1015 z "},"Ú":{"ha":997,"x_min":0,"x_max":0,"o":"m 844 1289 l 688 1289 l 554 1088 l 681 1088 z m 111 378 b 457 -17 75 144 229 -17 b 894 368 701 -17 856 125 l 999 1015 l 828 1015 l 726 379 b 471 149 703 232 611 149 b 283 379 329 149 260 235 l 383 1015 l 213 1015 z "},"Û":{"ha":997,"x_min":0,"x_max":0,"o":"m 544 1088 l 644 1222 l 700 1088 l 822 1088 l 735 1299 l 565 1299 l 411 1088 z m 111 378 b 457 -17 75 144 229 -17 b 894 368 701 -17 856 125 l 999 1015 l 828 1015 l 726 379 b 471 149 703 232 611 149 b 283 379 329 149 260 235 l 383 1015 l 213 1015 z "},"Ü":{"ha":997,"x_min":0,"x_max":0,"o":"m 500 1103 b 604 1210 556 1103 604 1153 b 528 1286 604 1254 574 1286 b 424 1179 471 1286 424 1238 b 500 1103 424 1133 454 1103 z m 740 1103 b 844 1210 797 1103 844 1153 b 768 1286 844 1256 814 1286 b 664 1179 713 1286 664 1238 b 740 1103 664 1133 694 1103 z m 111 378 b 457 -17 75 144 229 -17 b 894 368 701 -17 856 125 l 999 1015 l 828 1015 l 726 379 b 471 149 703 232 611 149 b 283 379 329 149 260 235 l 383 1015 l 213 1015 z "},"Ù":{"ha":997,"x_min":0,"x_max":0,"o":"m 674 1088 l 606 1289 l 461 1289 l 560 1088 z m 111 378 b 457 -17 75 144 229 -17 b 894 368 701 -17 856 125 l 999 1015 l 828 1015 l 726 379 b 471 149 703 232 611 149 b 283 379 329 149 260 235 l 383 1015 l 213 1015 z "},"Ű":{"ha":997,"x_min":0,"x_max":0,"o":"m 743 1289 l 604 1289 l 463 1088 l 581 1088 z m 953 1289 l 811 1289 l 664 1088 l 782 1088 z m 111 378 b 457 -17 75 144 229 -17 b 894 368 701 -17 856 125 l 999 1015 l 828 1015 l 726 379 b 471 149 703 232 611 149 b 283 379 329 149 260 235 l 383 1015 l 213 1015 z "},"Ū":{"ha":997,"x_min":0,"x_max":0,"o":"m 444 1140 l 807 1140 l 825 1256 l 463 1256 z m 111 378 b 457 -17 75 144 229 -17 b 894 368 701 -17 856 125 l 999 1015 l 828 1015 l 726 379 b 471 149 703 232 611 149 b 283 379 329 149 260 235 l 383 1015 l 213 1015 z "},"Ų":{"ha":997,"x_min":0,"x_max":0,"o":"m 111 378 b 446 -17 75 149 224 -11 b 349 -161 385 -50 349 -104 b 465 -268 349 -222 392 -268 b 533 -256 493 -268 513 -264 l 551 -146 b 513 -154 538 -151 522 -154 b 467 -112 483 -154 467 -136 b 563 -7 467 -75 504 -32 b 894 368 746 29 861 163 l 999 1015 l 828 1015 l 726 379 b 471 149 703 232 611 149 b 283 379 329 149 260 235 l 383 1015 l 213 1015 z "},"Ů":{"ha":997,"x_min":0,"x_max":0,"o":"m 622 1071 b 819 1268 733 1071 819 1156 b 661 1421 819 1357 753 1421 b 467 1219 551 1421 467 1335 b 622 1071 467 1132 529 1071 z m 632 1161 b 563 1232 589 1161 563 1189 b 653 1331 563 1289 601 1331 b 724 1260 694 1331 724 1303 b 632 1161 724 1203 685 1161 z m 111 378 b 457 -17 75 144 229 -17 b 894 368 701 -17 856 125 l 999 1015 l 828 1015 l 726 379 b 471 149 703 232 611 149 b 283 379 329 149 260 235 l 383 1015 l 213 1015 z "},"Ũ":{"ha":997,"x_min":0,"x_max":0,"o":"m 488 1097 b 547 1179 494 1154 511 1179 b 726 1097 607 1179 632 1097 b 878 1290 817 1097 867 1165 l 778 1290 b 717 1208 771 1235 756 1208 b 536 1290 650 1208 626 1290 b 388 1097 453 1290 394 1217 z m 111 378 b 457 -17 75 144 229 -17 b 894 368 701 -17 856 125 l 999 1015 l 828 1015 l 726 379 b 471 149 703 232 611 149 b 283 379 329 149 260 235 l 383 1015 l 213 1015 z "},"V":{"ha":949,"x_min":0,"x_max":0,"o":"m 333 0 l 511 0 l 1042 1015 l 856 1015 l 546 421 b 450 221 514 361 489 311 b 418 422 442 301 432 358 l 294 1015 l 119 1015 z "},"W":{"ha":1404,"x_min":0,"x_max":0,"o":"m 263 0 l 432 0 l 771 765 l 865 0 l 1029 0 l 1492 1015 l 1314 1015 l 1065 465 b 988 269 1042 411 1013 343 b 972 467 985 344 979 411 l 901 1015 l 708 1015 l 463 467 b 383 268 440 419 408 346 b 367 467 382 353 374 419 l 296 1015 l 126 1015 z "},"Ẃ":{"ha":1404,"x_min":0,"x_max":0,"o":"m 1047 1289 l 890 1289 l 757 1088 l 883 1088 z m 263 0 l 432 0 l 771 765 l 865 0 l 1029 0 l 1492 1015 l 1314 1015 l 1065 465 b 988 269 1042 411 1013 343 b 972 467 985 344 979 411 l 901 1015 l 708 1015 l 463 467 b 383 268 440 419 408 346 b 367 467 382 353 374 419 l 296 1015 l 126 1015 z "},"Ŵ":{"ha":1404,"x_min":0,"x_max":0,"o":"m 749 1088 l 847 1222 l 904 1088 l 1026 1088 l 938 1299 l 769 1299 l 614 1088 z m 263 0 l 432 0 l 771 765 l 865 0 l 1029 0 l 1492 1015 l 1314 1015 l 1065 465 b 988 269 1042 411 1013 343 b 972 467 985 344 979 411 l 901 1015 l 708 1015 l 463 467 b 383 268 440 419 408 346 b 367 467 382 353 374 419 l 296 1015 l 126 1015 z "},"Ẅ":{"ha":1404,"x_min":0,"x_max":0,"o":"m 703 1103 b 808 1210 760 1103 808 1153 b 731 1286 808 1254 776 1286 b 626 1179 674 1286 626 1238 b 703 1103 626 1133 657 1103 z m 943 1103 b 1049 1210 1000 1103 1049 1153 b 971 1286 1049 1256 1017 1286 b 868 1179 915 1286 868 1238 b 943 1103 868 1133 897 1103 z m 263 0 l 432 0 l 771 765 l 865 0 l 1029 0 l 1492 1015 l 1314 1015 l 1065 465 b 988 269 1042 411 1013 343 b 972 467 985 344 979 411 l 901 1015 l 708 1015 l 463 467 b 383 268 440 419 408 346 b 367 467 382 353 374 419 l 296 1015 l 126 1015 z "},"Ẁ":{"ha":1404,"x_min":0,"x_max":0,"o":"m 876 1088 l 810 1289 l 664 1289 l 763 1088 z m 263 0 l 432 0 l 771 765 l 865 0 l 1029 0 l 1492 1015 l 1314 1015 l 1065 465 b 988 269 1042 411 1013 343 b 972 467 985 344 979 411 l 901 1015 l 708 1015 l 463 467 b 383 268 440 419 408 346 b 367 467 382 353 374 419 l 296 1015 l 126 1015 z "},"X":{"ha":925,"x_min":0,"x_max":0,"o":"m 385 507 l -32 0 l 181 0 l 478 392 b 569 175 504 325 547 221 l 656 0 l 849 0 l 601 507 l 1007 1015 l 800 1015 l 507 622 b 422 825 481 693 449 772 l 328 1015 l 143 1015 z "},"Y":{"ha":868,"x_min":0,"x_max":0,"o":"m 358 401 l 294 0 l 465 0 l 529 401 l 961 1015 l 765 1015 l 507 640 b 464 567 490 615 476 592 b 442 640 458 594 450 618 l 301 1015 l 121 1015 z "},"Ý":{"ha":868,"x_min":0,"x_max":0,"o":"m 774 1289 l 615 1289 l 482 1088 l 608 1088 z m 358 401 l 294 0 l 465 0 l 529 401 l 961 1015 l 765 1015 l 507 640 b 464 567 490 615 476 592 b 442 640 458 594 450 618 l 301 1015 l 121 1015 z "},"Ŷ":{"ha":868,"x_min":0,"x_max":0,"o":"m 474 1088 l 572 1222 l 629 1088 l 751 1088 l 663 1299 l 494 1299 l 339 1088 z m 358 401 l 294 0 l 465 0 l 529 401 l 961 1015 l 765 1015 l 507 640 b 464 567 490 615 476 592 b 442 640 458 594 450 618 l 301 1015 l 121 1015 z "},"Ÿ":{"ha":868,"x_min":0,"x_max":0,"o":"m 428 1103 b 533 1210 485 1103 533 1153 b 456 1286 533 1254 501 1286 b 351 1179 399 1286 351 1238 b 428 1103 351 1133 382 1103 z m 668 1103 b 774 1210 725 1103 774 1153 b 696 1286 774 1256 742 1286 b 593 1179 640 1286 593 1238 b 668 1103 593 1133 622 1103 z m 358 401 l 294 0 l 465 0 l 529 401 l 961 1015 l 765 1015 l 507 640 b 464 567 490 615 476 592 b 442 640 458 594 450 618 l 301 1015 l 121 1015 z "},"Ỳ":{"ha":868,"x_min":0,"x_max":0,"o":"m 603 1088 l 535 1289 l 389 1289 l 488 1088 z m 358 401 l 294 0 l 465 0 l 529 401 l 961 1015 l 765 1015 l 507 640 b 464 567 490 615 476 592 b 442 640 458 594 450 618 l 301 1015 l 121 1015 z "},"Z":{"ha":801,"x_min":0,"x_max":0,"o":"m 704 0 l 729 160 l 225 160 l 833 861 l 857 1015 l 160 1015 l 136 856 l 615 856 l 14 161 l -11 0 z "},"Ź":{"ha":801,"x_min":0,"x_max":0,"o":"m 735 1289 l 578 1289 l 443 1088 l 569 1088 z m 704 0 l 729 160 l 225 160 l 833 861 l 857 1015 l 160 1015 l 136 856 l 615 856 l 14 161 l -11 0 z "},"Ž":{"ha":801,"x_min":0,"x_max":0,"o":"m 429 1089 l 597 1089 l 753 1301 l 618 1301 l 519 1165 l 463 1301 l 342 1301 z m 704 0 l 729 160 l 225 160 l 833 861 l 857 1015 l 160 1015 l 136 856 l 615 856 l 14 161 l -11 0 z "},"Ż":{"ha":801,"x_min":0,"x_max":0,"o":"m 508 1103 b 618 1214 568 1103 618 1154 b 539 1294 618 1263 586 1294 b 429 1183 479 1294 429 1244 b 508 1103 429 1135 460 1103 z m 704 0 l 729 160 l 225 160 l 833 861 l 857 1015 l 160 1015 l 136 856 l 615 856 l 14 161 l -11 0 z "},"a":{"ha":747,"x_min":0,"x_max":0,"o":"m 239 -18 b 474 103 342 -18 435 29 l 469 0 l 613 0 l 679 418 b 413 706 707 594 604 706 b 94 461 233 706 118 617 l 240 461 b 396 578 251 539 304 578 b 522 444 490 578 536 531 l 521 429 l 317 411 b 32 169 135 397 32 311 b 239 -18 32 58 115 -18 z m 301 107 b 197 188 236 107 197 138 b 360 304 197 256 247 296 l 504 317 l 499 279 b 301 107 483 174 407 107 z "},"á":{"ha":747,"x_min":0,"x_max":0,"o":"m 678 969 l 521 969 l 388 768 l 514 768 z m 239 -18 b 474 103 342 -18 435 29 l 469 0 l 613 0 l 679 418 b 413 706 707 594 604 706 b 94 461 233 706 118 617 l 240 461 b 396 578 251 539 304 578 b 522 444 490 578 536 531 l 521 429 l 317 411 b 32 169 135 397 32 311 b 239 -18 32 58 115 -18 z m 301 107 b 197 188 236 107 197 138 b 360 304 197 256 247 296 l 504 317 l 499 279 b 301 107 483 174 407 107 z "},"ă":{"ha":747,"x_min":0,"x_max":0,"o":"m 565 972 b 467 869 556 907 525 869 b 381 972 408 869 381 907 l 264 972 b 458 757 264 839 331 757 b 685 972 596 757 664 840 z m 239 -18 b 474 103 342 -18 435 29 l 469 0 l 613 0 l 679 418 b 413 706 707 594 604 706 b 94 461 233 706 118 617 l 240 461 b 396 578 251 539 304 578 b 522 444 490 578 536 531 l 521 429 l 317 411 b 32 169 135 397 32 311 b 239 -18 32 58 115 -18 z m 301 107 b 197 188 236 107 197 138 b 360 304 197 256 247 296 l 504 317 l 499 279 b 301 107 483 174 407 107 z "},"â":{"ha":747,"x_min":0,"x_max":0,"o":"m 378 768 l 478 903 l 533 768 l 656 768 l 567 979 l 399 979 l 244 768 z m 239 -18 b 474 103 342 -18 435 29 l 469 0 l 613 0 l 679 418 b 413 706 707 594 604 706 b 94 461 233 706 118 617 l 240 461 b 396 578 251 539 304 578 b 522 444 490 578 536 531 l 521 429 l 317 411 b 32 169 135 397 32 311 b 239 -18 32 58 115 -18 z m 301 107 b 197 188 236 107 197 138 b 360 304 197 256 247 296 l 504 317 l 499 279 b 301 107 483 174 407 107 z "},"ä":{"ha":747,"x_min":0,"x_max":0,"o":"m 333 783 b 438 890 389 783 438 833 b 361 967 438 935 406 967 b 256 860 304 967 256 918 b 333 783 256 814 286 783 z m 574 783 b 678 890 631 783 678 833 b 601 967 678 936 646 967 b 497 860 544 967 497 918 b 574 783 497 814 526 783 z m 239 -18 b 474 103 342 -18 435 29 l 469 0 l 613 0 l 679 418 b 413 706 707 594 604 706 b 94 461 233 706 118 617 l 240 461 b 396 578 251 539 304 578 b 522 444 490 578 536 531 l 521 429 l 317 411 b 32 169 135 397 32 311 b 239 -18 32 58 115 -18 z m 301 107 b 197 188 236 107 197 138 b 360 304 197 256 247 296 l 504 317 l 499 279 b 301 107 483 174 407 107 z "},"à":{"ha":747,"x_min":0,"x_max":0,"o":"m 507 768 l 439 969 l 294 969 l 393 768 z m 239 -18 b 474 103 342 -18 435 29 l 469 0 l 613 0 l 679 418 b 413 706 707 594 604 706 b 94 461 233 706 118 617 l 240 461 b 396 578 251 539 304 578 b 522 444 490 578 536 531 l 521 429 l 317 411 b 32 169 135 397 32 311 b 239 -18 32 58 115 -18 z m 301 107 b 197 188 236 107 197 138 b 360 304 197 256 247 296 l 504 317 l 499 279 b 301 107 483 174 407 107 z "},"ā":{"ha":747,"x_min":0,"x_max":0,"o":"m 278 821 l 640 821 l 658 936 l 296 936 z m 239 -18 b 474 103 342 -18 435 29 l 469 0 l 613 0 l 679 418 b 413 706 707 594 604 706 b 94 461 233 706 118 617 l 240 461 b 396 578 251 539 304 578 b 522 444 490 578 536 531 l 521 429 l 317 411 b 32 169 135 397 32 311 b 239 -18 32 58 115 -18 z m 301 107 b 197 188 236 107 197 138 b 360 304 197 256 247 296 l 504 317 l 499 279 b 301 107 483 174 407 107 z "},"ą":{"ha":747,"x_min":0,"x_max":0,"o":"m 239 -18 b 474 103 342 -18 435 29 l 469 0 l 511 0 b 381 -161 432 -31 381 -93 b 496 -268 381 -222 422 -268 b 565 -256 524 -268 544 -264 l 583 -146 b 543 -154 568 -151 553 -154 b 499 -112 515 -154 499 -136 b 611 0 499 -71 543 -24 l 613 0 l 679 418 b 413 706 707 594 604 706 b 94 461 233 706 118 617 l 240 461 b 396 578 251 539 304 578 b 522 444 490 578 536 531 l 521 429 l 317 411 b 32 169 135 397 32 311 b 239 -18 32 58 115 -18 z m 301 107 b 197 188 236 107 197 138 b 360 304 197 256 247 296 l 504 317 l 499 279 b 301 107 483 174 407 107 z "},"å":{"ha":747,"x_min":0,"x_max":0,"o":"m 456 751 b 651 949 567 751 651 836 b 494 1101 651 1038 586 1101 b 300 900 383 1101 300 1015 b 456 751 300 813 363 751 z m 464 842 b 396 913 422 842 396 869 b 486 1011 396 969 433 1011 b 556 940 528 1011 556 983 b 464 842 556 883 517 842 z m 239 -18 b 474 103 342 -18 435 29 l 469 0 l 613 0 l 679 418 b 413 706 707 594 604 706 b 94 461 233 706 118 617 l 240 461 b 396 578 251 539 304 578 b 522 444 490 578 536 531 l 521 429 l 317 411 b 32 169 135 397 32 311 b 239 -18 32 58 115 -18 z m 301 107 b 197 188 236 107 197 138 b 360 304 197 256 247 296 l 504 317 l 499 279 b 301 107 483 174 407 107 z "},"ǻ":{"ha":747,"x_min":0,"x_max":0,"o":"m 699 1172 l 553 1172 l 428 992 l 544 992 z m 239 -18 b 474 103 342 -18 435 29 l 469 0 l 613 0 l 679 418 b 569 672 699 538 657 626 b 626 814 606 707 626 757 b 469 965 626 903 561 965 b 274 765 358 965 274 881 b 292 690 274 736 281 711 b 94 461 182 658 113 578 l 240 461 b 396 578 251 539 304 578 b 522 444 490 578 536 531 l 521 429 l 317 411 b 32 169 135 397 32 311 b 239 -18 32 58 115 -18 z m 439 706 b 369 778 397 706 369 735 b 461 876 369 835 408 876 b 531 804 503 876 531 847 b 439 706 531 749 492 706 z m 301 107 b 197 188 236 107 197 138 b 360 304 197 256 247 296 l 504 317 l 499 279 b 301 107 483 174 407 107 z "},"ã":{"ha":747,"x_min":0,"x_max":0,"o":"m 321 778 b 381 860 328 835 344 860 b 560 778 440 860 465 778 b 711 971 650 778 700 846 l 611 971 b 550 889 604 915 589 889 b 369 971 483 889 460 971 b 221 778 286 971 228 897 z m 239 -18 b 474 103 342 -18 435 29 l 469 0 l 613 0 l 679 418 b 413 706 707 594 604 706 b 94 461 233 706 118 617 l 240 461 b 396 578 251 539 304 578 b 522 444 490 578 536 531 l 521 429 l 317 411 b 32 169 135 397 32 311 b 239 -18 32 58 115 -18 z m 301 107 b 197 188 236 107 197 138 b 360 304 197 256 247 296 l 504 317 l 499 279 b 301 107 483 174 407 107 z "},"æ":{"ha":1208,"x_min":0,"x_max":0,"o":"m 32 169 b 251 -18 32 57 115 -18 b 540 133 388 -18 485 42 b 806 -17 585 38 675 -17 b 1144 221 963 -17 1099 78 l 983 221 b 814 118 954 157 892 118 b 651 300 708 118 651 183 l 651 304 l 1156 306 l 1164 357 b 878 704 1196 565 1081 704 b 633 607 781 704 696 668 b 413 706 594 669 521 706 b 94 461 233 706 118 617 l 240 461 b 396 578 251 539 304 578 b 524 444 490 578 536 531 l 518 414 l 315 397 b 32 169 132 382 32 311 z m 868 571 b 1010 410 969 571 1025 507 l 669 410 b 868 571 701 506 778 571 z m 197 188 b 358 290 197 253 246 281 l 503 303 l 499 279 b 301 107 482 174 407 107 b 197 188 239 107 197 135 z "},"ǽ":{"ha":1208,"x_min":0,"x_max":0,"o":"m 886 969 l 728 969 l 594 768 l 721 768 z m 32 169 b 251 -18 32 57 115 -18 b 540 133 388 -18 485 42 b 806 -17 585 38 675 -17 b 1144 221 963 -17 1099 78 l 983 221 b 814 118 954 157 892 118 b 651 300 708 118 651 183 l 651 304 l 1156 306 l 1164 357 b 878 704 1196 565 1081 704 b 633 607 781 704 696 668 b 413 706 594 669 521 706 b 94 461 233 706 118 617 l 240 461 b 396 578 251 539 304 578 b 524 444 490 578 536 531 l 518 414 l 315 397 b 32 169 132 382 32 311 z m 868 571 b 1010 410 969 571 1025 507 l 669 410 b 868 571 701 506 778 571 z m 197 188 b 358 290 197 253 246 281 l 503 303 l 499 279 b 301 107 482 174 407 107 b 197 188 239 107 197 135 z "},"b":{"ha":844,"x_min":0,"x_max":0,"o":"m 185 0 l 213 110 b 440 -17 247 33 336 -17 b 800 394 646 -17 800 154 b 522 704 800 578 683 704 b 289 583 421 704 343 661 l 360 1033 l 197 1033 l 33 0 z m 249 301 b 474 561 249 447 349 561 b 638 385 574 561 638 490 b 413 128 638 240 538 128 b 249 301 310 128 249 194 z "},"c":{"ha":749,"x_min":0,"x_max":0,"o":"m 42 290 b 353 -17 42 100 161 -17 b 696 251 518 -17 653 89 l 529 251 b 361 128 501 175 438 128 b 208 300 265 128 208 193 b 415 560 208 447 297 560 b 556 438 499 560 550 515 l 721 438 b 425 704 715 606 606 704 b 42 290 208 704 42 525 z "},"ć":{"ha":749,"x_min":0,"x_max":0,"o":"m 674 969 l 517 969 l 383 768 l 510 768 z m 42 290 b 353 -17 42 100 161 -17 b 696 251 518 -17 653 89 l 529 251 b 361 128 501 175 438 128 b 208 300 265 128 208 193 b 415 560 208 447 297 560 b 556 438 499 560 550 515 l 721 438 b 425 704 715 606 606 704 b 42 290 208 704 42 525 z "},"č":{"ha":749,"x_min":0,"x_max":0,"o":"m 369 769 l 538 769 l 693 982 l 558 982 l 460 846 l 403 982 l 281 982 z m 42 290 b 353 -17 42 100 161 -17 b 696 251 518 -17 653 89 l 529 251 b 361 128 501 175 438 128 b 208 300 265 128 208 193 b 415 560 208 447 297 560 b 556 438 499 560 550 515 l 721 438 b 425 704 715 606 606 704 b 42 290 208 704 42 525 z "},"ç":{"ha":749,"x_min":0,"x_max":0,"o":"m 42 290 b 294 -12 42 121 138 8 l 249 -85 l 258 -131 b 326 -118 282 -122 303 -118 b 378 -161 358 -118 378 -133 b 297 -218 378 -197 346 -218 b 211 -193 267 -218 239 -208 l 199 -269 b 301 -294 221 -283 260 -294 b 469 -153 403 -294 469 -239 b 371 -57 469 -90 418 -57 b 332 -62 356 -57 343 -58 l 361 -17 b 696 251 522 -12 654 92 l 529 251 b 361 128 501 175 438 128 b 208 300 265 128 208 193 b 415 560 208 447 297 560 b 556 438 499 560 550 515 l 721 438 b 425 704 715 606 606 704 b 42 290 208 704 42 525 z "},"ĉ":{"ha":749,"x_min":0,"x_max":0,"o":"m 375 768 l 474 903 l 531 768 l 651 768 l 564 979 l 396 979 l 240 768 z m 42 290 b 353 -17 42 100 161 -17 b 696 251 518 -17 653 89 l 529 251 b 361 128 501 175 438 128 b 208 300 265 128 208 193 b 415 560 208 447 297 560 b 556 438 499 560 550 515 l 721 438 b 425 704 715 606 606 704 b 42 290 208 704 42 525 z "},"ċ":{"ha":749,"x_min":0,"x_max":0,"o":"m 449 783 b 558 894 507 783 558 835 b 478 975 558 943 525 975 b 368 864 419 975 368 925 b 449 783 368 815 400 783 z m 42 290 b 353 -17 42 100 161 -17 b 696 251 518 -17 653 89 l 529 251 b 361 128 501 175 438 128 b 208 300 265 128 208 193 b 415 560 208 447 297 560 b 556 438 499 560 550 515 l 721 438 b 425 704 715 606 606 704 b 42 290 208 704 42 525 z "},"d":{"ha":843,"x_min":0,"x_max":0,"o":"m 322 -17 b 556 106 424 -17 501 26 l 550 0 l 701 0 l 865 1033 l 703 1033 l 632 579 b 404 704 599 654 508 704 b 44 293 199 704 44 535 b 322 -17 44 110 161 -17 z m 371 128 b 207 303 271 128 207 197 b 432 561 207 449 307 561 b 596 388 535 561 596 494 b 371 128 596 242 496 128 z "},"ð":{"ha":811,"x_min":0,"x_max":0,"o":"m 43 293 b 378 -15 43 111 169 -15 b 779 486 621 -15 779 186 b 671 878 779 614 742 747 l 769 914 l 738 1011 l 618 965 b 568 1035 604 986 586 1011 l 396 1035 b 482 915 432 990 460 951 l 329 857 l 361 763 l 533 826 b 625 606 578 746 607 672 b 426 682 578 657 501 682 b 43 293 215 682 43 511 z m 208 301 b 428 539 208 435 304 539 b 601 367 540 539 601 464 b 376 128 601 232 504 128 b 208 301 268 128 208 206 z "},"ď":{"ha":843,"x_min":0,"x_max":0,"o":"m 322 -17 b 556 106 424 -17 501 26 l 550 0 l 701 0 l 865 1033 l 703 1033 l 632 579 b 404 704 599 654 508 704 b 44 293 199 704 44 535 b 322 -17 44 110 161 -17 z m 894 785 l 994 785 l 1069 1033 l 933 1033 z m 371 128 b 207 303 271 128 207 197 b 432 561 207 449 307 561 b 596 388 535 561 596 494 b 371 128 596 242 496 128 z "},"đ":{"ha":843,"x_min":0,"x_max":0,"o":"m 322 -17 b 556 106 424 -17 501 26 l 550 0 l 701 0 l 829 801 l 913 801 l 929 901 l 844 901 l 865 1033 l 703 1033 l 682 901 l 467 901 l 450 801 l 667 801 l 632 579 b 404 704 599 654 508 704 b 44 293 199 704 44 535 b 322 -17 44 110 161 -17 z m 371 128 b 207 303 271 128 207 197 b 432 561 207 449 307 561 b 596 388 535 561 596 494 b 371 128 596 242 496 128 z "},"e":{"ha":756,"x_min":0,"x_max":0,"o":"m 353 -17 b 692 221 508 -17 644 78 l 531 221 b 361 118 501 156 439 118 b 199 300 256 118 199 183 l 199 304 l 703 306 l 711 357 b 425 704 743 564 628 704 b 42 290 208 704 42 525 b 353 -17 42 100 161 -17 z m 415 571 b 557 410 515 571 572 507 l 217 410 b 415 571 249 506 325 571 z "},"é":{"ha":756,"x_min":0,"x_max":0,"o":"m 660 969 l 503 969 l 368 768 l 494 768 z m 353 -17 b 692 221 508 -17 644 78 l 531 221 b 361 118 501 156 439 118 b 199 300 256 118 199 183 l 199 304 l 703 306 l 711 357 b 425 704 743 564 628 704 b 42 290 208 704 42 525 b 353 -17 42 100 161 -17 z m 415 571 b 557 410 515 571 572 507 l 217 410 b 415 571 249 506 325 571 z "},"ĕ":{"ha":756,"x_min":0,"x_max":0,"o":"m 547 972 b 449 869 536 907 507 869 b 363 972 390 869 363 907 l 244 972 b 440 757 244 839 313 757 b 667 972 578 757 646 840 z m 353 -17 b 692 221 508 -17 644 78 l 531 221 b 361 118 501 156 439 118 b 199 300 256 118 199 183 l 199 304 l 703 306 l 711 357 b 425 704 743 564 628 704 b 42 290 208 704 42 525 b 353 -17 42 100 161 -17 z m 415 571 b 557 410 515 571 572 507 l 217 410 b 415 571 249 506 325 571 z "},"ě":{"ha":756,"x_min":0,"x_max":0,"o":"m 354 769 l 524 769 l 678 982 l 544 982 l 444 846 l 389 982 l 267 982 z m 353 -17 b 692 221 508 -17 644 78 l 531 221 b 361 118 501 156 439 118 b 199 300 256 118 199 183 l 199 304 l 703 306 l 711 357 b 425 704 743 564 628 704 b 42 290 208 704 42 525 b 353 -17 42 100 161 -17 z m 415 571 b 557 410 515 571 572 507 l 217 410 b 415 571 249 506 325 571 z "},"ê":{"ha":756,"x_min":0,"x_max":0,"o":"m 360 768 l 460 903 l 515 768 l 638 768 l 549 979 l 381 979 l 226 768 z m 353 -17 b 692 221 508 -17 644 78 l 531 221 b 361 118 501 156 439 118 b 199 300 256 118 199 183 l 199 304 l 703 306 l 711 357 b 425 704 743 564 628 704 b 42 290 208 704 42 525 b 353 -17 42 100 161 -17 z m 415 571 b 557 410 515 571 572 507 l 217 410 b 415 571 249 506 325 571 z "},"ë":{"ha":756,"x_min":0,"x_max":0,"o":"m 315 783 b 419 890 371 783 419 833 b 343 967 419 935 388 967 b 238 860 286 967 238 918 b 315 783 238 814 268 783 z m 556 783 b 660 890 613 783 660 833 b 583 967 660 936 628 967 b 479 860 526 967 479 918 b 556 783 479 814 508 783 z m 353 -17 b 692 221 508 -17 644 78 l 531 221 b 361 118 501 156 439 118 b 199 300 256 118 199 183 l 199 304 l 703 306 l 711 357 b 425 704 743 564 628 704 b 42 290 208 704 42 525 b 353 -17 42 100 161 -17 z m 415 571 b 557 410 515 571 572 507 l 217 410 b 415 571 249 506 325 571 z "},"ė":{"ha":756,"x_min":0,"x_max":0,"o":"m 433 783 b 543 894 493 783 543 835 b 464 975 543 943 511 975 b 354 864 404 975 354 925 b 433 783 354 815 386 783 z m 353 -17 b 692 221 508 -17 644 78 l 531 221 b 361 118 501 156 439 118 b 199 300 256 118 199 183 l 199 304 l 703 306 l 711 357 b 425 704 743 564 628 704 b 42 290 208 704 42 525 b 353 -17 42 100 161 -17 z m 415 571 b 557 410 515 571 572 507 l 217 410 b 415 571 249 506 325 571 z "},"è":{"ha":756,"x_min":0,"x_max":0,"o":"m 489 768 l 421 969 l 276 969 l 375 768 z m 353 -17 b 692 221 508 -17 644 78 l 531 221 b 361 118 501 156 439 118 b 199 300 256 118 199 183 l 199 304 l 703 306 l 711 357 b 425 704 743 564 628 704 b 42 290 208 704 42 525 b 353 -17 42 100 161 -17 z m 415 571 b 557 410 515 571 572 507 l 217 410 b 415 571 249 506 325 571 z "},"ē":{"ha":756,"x_min":0,"x_max":0,"o":"m 260 821 l 622 821 l 640 936 l 278 936 z m 353 -17 b 692 221 508 -17 644 78 l 531 221 b 361 118 501 156 439 118 b 199 300 256 118 199 183 l 199 304 l 703 306 l 711 357 b 425 704 743 564 628 704 b 42 290 208 704 42 525 b 353 -17 42 100 161 -17 z m 415 571 b 557 410 515 571 572 507 l 217 410 b 415 571 249 506 325 571 z "},"ę":{"ha":756,"x_min":0,"x_max":0,"o":"m 417 -256 l 435 -146 b 396 -154 421 -151 406 -154 b 350 -112 367 -154 350 -136 b 464 0 350 -71 396 -24 b 692 221 571 33 656 113 l 531 221 b 361 118 501 156 439 118 b 199 300 256 118 199 183 l 199 304 l 703 306 l 711 357 b 425 704 743 564 628 704 b 42 290 208 704 42 525 b 329 -17 42 108 151 -7 b 232 -161 269 -50 232 -103 b 349 -268 232 -222 275 -268 b 417 -256 376 -268 396 -264 z m 415 571 b 557 410 515 571 572 507 l 217 410 b 415 571 249 506 325 571 z "},"f":{"ha":460,"x_min":0,"x_max":0,"o":"m 74 686 l 51 550 l 150 550 l 63 0 l 224 0 l 311 550 l 471 550 l 493 686 l 332 686 l 346 772 b 469 888 358 853 396 888 b 526 886 489 888 507 886 l 549 1026 b 465 1033 524 1032 493 1033 b 185 772 308 1033 213 944 l 171 686 z "},"g":{"ha":833,"x_min":0,"x_max":0,"o":"m 44 303 b 326 14 44 133 161 14 b 549 119 418 14 497 51 l 531 4 b 324 -187 510 -121 438 -187 b 151 -42 222 -187 157 -132 l -10 -42 b 321 -336 -8 -218 125 -336 b 697 35 533 -336 658 -212 l 800 686 l 649 686 l 622 592 b 415 704 589 660 510 704 b 44 303 208 704 44 526 z m 210 317 b 429 561 210 453 306 561 b 588 401 528 561 588 500 b 365 153 588 260 492 153 b 210 317 272 153 210 218 z "},"ğ":{"ha":833,"x_min":0,"x_max":0,"o":"m 564 978 b 464 874 553 913 524 874 b 378 978 407 874 378 913 l 261 978 b 457 763 261 844 328 763 b 683 978 594 763 661 846 z m 44 303 b 326 14 44 133 161 14 b 549 119 418 14 497 51 l 531 4 b 324 -187 510 -121 438 -187 b 151 -42 222 -187 157 -132 l -10 -42 b 321 -336 -8 -218 125 -336 b 697 35 533 -336 658 -212 l 800 686 l 649 686 l 622 592 b 415 704 589 660 510 704 b 44 303 208 704 44 526 z m 210 317 b 429 561 210 453 306 561 b 588 401 528 561 588 500 b 365 153 588 260 492 153 b 210 317 272 153 210 218 z "},"ĝ":{"ha":833,"x_min":0,"x_max":0,"o":"m 376 772 l 475 908 l 532 772 l 654 772 l 565 985 l 397 985 l 242 772 z m 44 303 b 326 14 44 133 161 14 b 549 119 418 14 497 51 l 531 4 b 324 -187 510 -121 438 -187 b 151 -42 222 -187 157 -132 l -10 -42 b 321 -336 -8 -218 125 -336 b 697 35 533 -336 658 -212 l 800 686 l 649 686 l 622 592 b 415 704 589 660 510 704 b 44 303 208 704 44 526 z m 210 317 b 429 561 210 453 306 561 b 588 401 528 561 588 500 b 365 153 588 260 492 153 b 210 317 272 153 210 218 z "},"ģ":{"ha":833,"x_min":0,"x_max":0,"o":"m 543 881 b 479 944 543 918 518 944 b 449 938 469 944 458 942 b 550 990 458 978 494 996 l 558 1046 b 369 869 447 1057 369 972 b 444 785 369 819 397 785 b 543 881 499 785 543 826 z m 44 303 b 326 14 44 133 161 14 b 549 119 418 14 497 51 l 531 4 b 324 -187 510 -121 438 -187 b 151 -42 222 -187 157 -132 l -10 -42 b 321 -336 -8 -218 125 -336 b 697 35 533 -336 658 -212 l 800 686 l 649 686 l 622 592 b 415 704 589 660 510 704 b 44 303 208 704 44 526 z m 210 317 b 429 561 210 453 306 561 b 588 401 528 561 588 500 b 365 153 588 260 492 153 b 210 317 272 153 210 218 z "},"ġ":{"ha":833,"x_min":0,"x_max":0,"o":"m 450 789 b 560 900 508 789 560 840 b 479 981 560 947 526 981 b 369 869 421 981 369 931 b 450 789 369 821 401 789 z m 44 303 b 326 14 44 133 161 14 b 549 119 418 14 497 51 l 531 4 b 324 -187 510 -121 438 -187 b 151 -42 222 -187 157 -132 l -10 -42 b 321 -336 -8 -218 125 -336 b 697 35 533 -336 658 -212 l 800 686 l 649 686 l 622 592 b 415 704 589 660 510 704 b 44 303 208 704 44 526 z m 210 317 b 429 561 210 453 306 561 b 588 401 528 561 588 500 b 365 153 588 260 492 153 b 210 317 272 153 210 218 z "},"h":{"ha":801,"x_min":0,"x_max":0,"o":"m 196 0 l 253 368 b 442 560 272 489 342 560 b 565 382 536 560 583 494 l 504 0 l 667 0 l 733 421 b 506 707 760 582 660 707 b 290 593 415 707 350 672 l 360 1033 l 197 1033 l 33 0 z "},"ħ":{"ha":801,"x_min":0,"x_max":0,"o":"m 196 0 l 253 368 b 442 560 272 489 342 560 b 565 382 536 560 583 494 l 504 0 l 667 0 l 733 421 b 506 707 760 582 660 707 b 290 593 415 707 350 672 l 324 801 l 536 801 l 553 901 l 339 901 l 360 1033 l 197 1033 l 176 901 l 90 901 l 75 801 l 161 801 l 33 0 z "},"i":{"ha":338,"x_min":0,"x_max":0,"o":"m 244 825 b 361 942 306 825 361 882 b 276 1026 361 990 325 1026 b 160 910 214 1026 160 971 b 244 825 160 863 194 825 z m 33 0 l 196 0 l 304 686 l 142 686 z "},"í":{"ha":338,"x_min":0,"x_max":0,"o":"m 464 969 l 307 969 l 174 768 l 300 768 z m 33 0 l 196 0 l 304 686 l 142 686 z "},"î":{"ha":338,"x_min":0,"x_max":0,"o":"m 165 768 l 264 903 l 321 768 l 443 768 l 354 979 l 186 979 l 31 768 z m 33 0 l 196 0 l 304 686 l 142 686 z "},"ï":{"ha":338,"x_min":0,"x_max":0,"o":"m 119 783 b 225 890 176 783 225 833 b 147 967 225 935 193 967 b 43 860 90 967 43 918 b 119 783 43 814 74 783 z m 360 783 b 465 890 417 783 465 833 b 388 967 465 936 433 967 b 285 860 332 967 285 918 b 360 783 285 814 314 783 z m 33 0 l 196 0 l 304 686 l 142 686 z "},"ì":{"ha":338,"x_min":0,"x_max":0,"o":"m 293 768 l 226 969 l 81 969 l 179 768 z m 33 0 l 196 0 l 304 686 l 142 686 z "},"ī":{"ha":338,"x_min":0,"x_max":0,"o":"m 64 821 l 426 821 l 444 936 l 82 936 z m 33 0 l 196 0 l 304 686 l 142 686 z "},"į":{"ha":338,"x_min":0,"x_max":0,"o":"m 244 825 b 361 942 306 825 361 882 b 276 1026 361 990 325 1026 b 160 910 214 1026 160 971 b 244 825 160 863 194 825 z m 33 0 l 96 0 b -36 -161 15 -31 -36 -93 b 81 -268 -36 -222 7 -268 b 149 -256 108 -268 128 -264 l 167 -146 b 126 -154 153 -151 136 -154 b 82 -112 99 -154 82 -136 b 196 0 82 -71 126 -24 l 304 686 l 142 686 z "},"ĩ":{"ha":338,"x_min":0,"x_max":0,"o":"m 107 778 b 167 860 115 835 131 860 b 346 778 226 860 251 778 b 497 971 436 778 488 846 l 397 971 b 338 889 390 915 375 889 b 157 971 269 889 246 971 b 7 778 72 971 14 897 z m 33 0 l 196 0 l 304 686 l 142 686 z "},"j":{"ha":335,"x_min":0,"x_max":0,"o":"m 243 825 b 358 942 303 825 358 882 b 274 1026 358 990 324 1026 b 158 910 213 1026 158 971 b 243 825 158 863 193 825 z m -172 -319 b -62 -336 -133 -332 -106 -336 b 178 -97 69 -336 153 -256 l 301 686 l 139 686 l 18 -79 b -74 -183 7 -151 -21 -183 b -131 -175 -94 -183 -110 -182 z "},"ĵ":{"ha":335,"x_min":0,"x_max":0,"o":"m 163 768 l 263 903 l 318 768 l 440 768 l 353 979 l 183 979 l 29 768 z m -172 -319 b -62 -336 -133 -332 -106 -336 b 178 -97 69 -336 153 -256 l 301 686 l 139 686 l 18 -79 b -74 -183 7 -151 -21 -183 b -131 -175 -94 -183 -110 -182 z "},"k":{"ha":731,"x_min":0,"x_max":0,"o":"m 199 0 l 228 186 l 344 293 l 476 0 l 651 0 l 471 401 l 775 686 l 568 686 l 263 400 l 363 1033 l 199 1033 l 36 0 z "},"ķ":{"ha":731,"x_min":0,"x_max":0,"o":"m 199 0 l 228 186 l 344 293 l 476 0 l 651 0 l 471 401 l 775 686 l 568 686 l 263 400 l 363 1033 l 199 1033 l 36 0 z m 381 -135 b 307 -50 381 -83 353 -50 b 207 -146 250 -50 207 -92 b 269 -208 207 -182 232 -208 b 301 -201 282 -208 293 -206 b 200 -254 292 -240 258 -260 l 192 -310 b 381 -135 303 -321 381 -237 z "},"l":{"ha":343,"x_min":0,"x_max":0,"o":"m 199 0 l 363 1033 l 199 1033 l 36 0 z "},"ĺ":{"ha":343,"x_min":0,"x_max":0,"o":"m 515 1285 l 358 1285 l 225 1082 l 351 1082 z m 199 0 l 363 1033 l 199 1033 l 36 0 z "},"ľ":{"ha":343,"x_min":0,"x_max":0,"o":"m 199 0 l 363 1033 l 199 1033 l 36 0 z m 392 785 l 492 785 l 567 1033 l 431 1033 z "},"ļ":{"ha":343,"x_min":0,"x_max":0,"o":"m 199 0 l 363 1033 l 199 1033 l 36 0 z m 181 -135 b 106 -50 181 -83 151 -50 b 6 -146 50 -50 6 -92 b 68 -208 6 -182 31 -208 b 100 -201 79 -208 90 -207 b 0 -254 90 -240 57 -260 l -8 -310 b 181 -135 103 -321 181 -237 z "},"ŀ":{"ha":532,"x_min":0,"x_max":0,"o":"m 199 0 l 363 1033 l 199 1033 l 36 0 z m 442 407 b 539 504 494 407 539 451 b 442 603 539 557 493 603 b 342 504 386 603 342 558 b 442 407 342 451 386 407 z "},"ł":{"ha":343,"x_min":0,"x_max":0,"o":"m 199 0 l 281 515 l 360 551 l 378 671 l 300 635 l 363 1033 l 199 1033 l 124 556 l 43 519 l 24 400 l 104 436 l 36 0 z "},"m":{"ha":1207,"x_min":0,"x_max":0,"o":"m 196 0 l 258 392 b 424 558 275 500 335 558 b 535 407 506 558 550 497 l 471 0 l 633 0 l 696 390 b 860 560 713 500 772 560 b 972 406 944 560 988 500 l 910 0 l 1072 0 l 1142 447 b 919 706 1165 596 1069 706 b 688 576 821 706 735 657 b 500 706 661 658 596 706 b 290 603 415 706 338 667 l 292 686 l 142 686 l 33 0 z "},"n":{"ha":803,"x_min":0,"x_max":0,"o":"m 196 0 l 254 368 b 442 560 274 489 343 560 b 565 382 538 560 585 494 l 506 0 l 668 0 l 735 421 b 507 707 760 582 661 707 b 292 593 415 707 351 672 l 292 686 l 142 686 l 33 0 z "},"ń":{"ha":803,"x_min":0,"x_max":0,"o":"m 708 969 l 551 969 l 418 768 l 544 768 z m 196 0 l 254 368 b 442 560 274 489 343 560 b 565 382 538 560 585 494 l 506 0 l 668 0 l 735 421 b 507 707 760 582 661 707 b 292 593 415 707 351 672 l 292 686 l 142 686 l 33 0 z "},"ň":{"ha":803,"x_min":0,"x_max":0,"o":"m 403 769 l 572 769 l 726 982 l 593 982 l 493 846 l 438 982 l 315 982 z m 196 0 l 254 368 b 442 560 274 489 343 560 b 565 382 538 560 585 494 l 506 0 l 668 0 l 735 421 b 507 707 760 582 661 707 b 292 593 415 707 351 672 l 292 686 l 142 686 l 33 0 z "},"ņ":{"ha":803,"x_min":0,"x_max":0,"o":"m 196 0 l 254 368 b 442 560 274 489 343 560 b 565 382 538 560 585 494 l 506 0 l 668 0 l 735 421 b 507 707 760 582 661 707 b 292 593 415 707 351 672 l 292 686 l 142 686 l 33 0 z m 414 -135 b 339 -50 414 -83 385 -50 b 239 -146 283 -50 239 -92 b 301 -208 239 -182 264 -208 b 333 -201 313 -208 324 -207 b 233 -254 324 -240 290 -260 l 225 -310 b 414 -135 336 -321 414 -237 z "},"ŋ":{"ha":803,"x_min":0,"x_max":0,"o":"m 196 0 l 254 368 b 442 560 274 489 343 560 b 565 382 538 560 585 494 l 493 -79 b 401 -183 482 -151 454 -183 b 344 -175 381 -183 365 -182 l 303 -319 b 413 -336 342 -332 369 -336 b 653 -97 544 -336 628 -256 l 735 421 b 507 707 760 582 661 707 b 292 593 415 707 351 672 l 292 686 l 142 686 l 33 0 z "},"ñ":{"ha":803,"x_min":0,"x_max":0,"o":"m 351 778 b 411 860 358 835 375 860 b 590 778 471 860 496 778 b 742 971 681 778 731 846 l 642 971 b 581 889 635 915 619 889 b 400 971 514 889 490 971 b 251 778 317 971 258 897 z m 196 0 l 254 368 b 442 560 274 489 343 560 b 565 382 538 560 585 494 l 506 0 l 668 0 l 735 421 b 507 707 760 582 661 707 b 292 593 415 707 351 672 l 292 686 l 142 686 l 33 0 z "},"o":{"ha":814,"x_min":0,"x_max":0,"o":"m 42 294 b 369 -17 42 108 174 -17 b 772 393 594 -17 772 164 b 444 704 772 579 640 704 b 42 294 221 704 42 524 z m 208 307 b 436 561 208 449 311 561 b 606 381 540 561 606 490 b 379 128 606 240 504 128 b 208 307 274 128 208 199 z "},"ó":{"ha":814,"x_min":0,"x_max":0,"o":"m 701 969 l 544 969 l 411 768 l 538 768 z m 42 294 b 369 -17 42 108 174 -17 b 772 393 594 -17 772 164 b 444 704 772 579 640 704 b 42 294 221 704 42 524 z m 208 307 b 436 561 208 449 311 561 b 606 381 540 561 606 490 b 379 128 606 240 504 128 b 208 307 274 128 208 199 z "},"ô":{"ha":814,"x_min":0,"x_max":0,"o":"m 403 768 l 501 903 l 558 768 l 679 768 l 592 979 l 424 979 l 268 768 z m 42 294 b 369 -17 42 108 174 -17 b 772 393 594 -17 772 164 b 444 704 772 579 640 704 b 42 294 221 704 42 524 z m 208 307 b 436 561 208 449 311 561 b 606 381 540 561 606 490 b 379 128 606 240 504 128 b 208 307 274 128 208 199 z "},"ö":{"ha":814,"x_min":0,"x_max":0,"o":"m 357 783 b 461 890 413 783 461 833 b 385 967 461 935 431 967 b 281 860 328 967 281 918 b 357 783 281 814 311 783 z m 597 783 b 701 890 654 783 701 833 b 625 967 701 936 671 967 b 521 860 569 967 521 918 b 597 783 521 814 551 783 z m 42 294 b 369 -17 42 108 174 -17 b 772 393 594 -17 772 164 b 444 704 772 579 640 704 b 42 294 221 704 42 524 z m 208 307 b 436 561 208 449 311 561 b 606 381 540 561 606 490 b 379 128 606 240 504 128 b 208 307 274 128 208 199 z "},"ò":{"ha":814,"x_min":0,"x_max":0,"o":"m 531 768 l 464 969 l 318 969 l 417 768 z m 42 294 b 369 -17 42 108 174 -17 b 772 393 594 -17 772 164 b 444 704 772 579 640 704 b 42 294 221 704 42 524 z m 208 307 b 436 561 208 449 311 561 b 606 381 540 561 606 490 b 379 128 606 240 504 128 b 208 307 274 128 208 199 z "},"ő":{"ha":814,"x_min":0,"x_max":0,"o":"m 600 969 l 461 969 l 319 768 l 438 768 z m 810 969 l 669 969 l 521 768 l 639 768 z m 42 294 b 369 -17 42 108 174 -17 b 772 393 594 -17 772 164 b 444 704 772 579 640 704 b 42 294 221 704 42 524 z m 208 307 b 436 561 208 449 311 561 b 606 381 540 561 606 490 b 379 128 606 240 504 128 b 208 307 274 128 208 199 z "},"ō":{"ha":814,"x_min":0,"x_max":0,"o":"m 301 821 l 664 821 l 682 936 l 319 936 z m 42 294 b 369 -17 42 108 174 -17 b 772 393 594 -17 772 164 b 444 704 772 579 640 704 b 42 294 221 704 42 524 z m 208 307 b 436 561 208 449 311 561 b 606 381 540 561 606 490 b 379 128 606 240 504 128 b 208 307 274 128 208 199 z "},"ø":{"ha":814,"x_min":0,"x_max":0,"o":"m 42 294 b 129 72 42 203 74 126 l 21 -69 l 167 -69 l 226 10 b 369 -17 268 -7 317 -17 b 772 393 594 -17 772 164 b 688 614 772 483 742 560 l 789 747 l 647 747 l 593 676 b 444 704 549 694 500 704 b 42 294 221 704 42 524 z m 208 307 b 436 561 208 449 311 561 b 497 551 458 561 479 558 l 232 207 b 208 307 217 233 208 268 z m 606 381 b 379 128 606 240 504 128 b 322 136 358 128 340 131 l 583 478 b 606 381 599 451 606 418 z "},"ǿ":{"ha":814,"x_min":0,"x_max":0,"o":"m 701 969 l 544 969 l 411 768 l 538 768 z m 42 294 b 129 72 42 203 74 126 l 21 -69 l 167 -69 l 226 10 b 369 -17 268 -7 317 -17 b 772 393 594 -17 772 164 b 688 614 772 483 742 560 l 789 747 l 647 747 l 593 676 b 444 704 549 694 500 704 b 42 294 221 704 42 524 z m 208 307 b 436 561 208 449 311 561 b 497 551 458 561 479 558 l 232 207 b 208 307 217 233 208 268 z m 606 381 b 379 128 606 240 504 128 b 322 136 358 128 340 131 l 583 478 b 606 381 599 451 606 418 z "},"õ":{"ha":814,"x_min":0,"x_max":0,"o":"m 344 778 b 404 860 353 835 368 860 b 583 778 464 860 489 778 b 735 971 674 778 725 846 l 635 971 b 574 889 628 915 613 889 b 394 971 507 889 483 971 b 244 778 310 971 251 897 z m 42 294 b 369 -17 42 108 174 -17 b 772 393 594 -17 772 164 b 444 704 772 579 640 704 b 42 294 221 704 42 524 z m 208 307 b 436 561 208 449 311 561 b 606 381 540 561 606 490 b 379 128 606 240 504 128 b 208 307 274 128 208 199 z "},"œ":{"ha":1319,"x_min":0,"x_max":0,"o":"m 42 294 b 369 -17 42 108 174 -17 b 656 108 485 -17 585 31 b 917 -17 707 28 797 -17 b 1256 221 1072 -17 1208 78 l 1094 221 b 925 118 1065 156 1003 118 b 763 300 819 118 763 183 l 763 304 l 1267 306 l 1275 357 b 989 704 1308 564 1192 704 b 710 578 878 704 779 657 b 444 704 657 657 564 704 b 42 294 221 704 42 524 z m 979 571 b 1121 410 1079 571 1136 507 l 781 410 b 979 571 813 506 889 571 z m 208 307 b 436 561 208 449 311 561 b 606 381 540 561 606 490 b 379 128 606 240 504 128 b 208 307 274 128 208 199 z "},"p":{"ha":843,"x_min":0,"x_max":0,"o":"m -17 -318 l 146 -318 l 211 110 b 439 -17 246 33 336 -17 b 800 394 646 -17 800 154 b 521 704 800 578 683 704 b 288 583 419 704 343 661 l 293 686 l 142 686 z m 247 301 b 474 561 247 447 347 561 b 636 385 574 561 636 490 b 413 128 636 240 538 128 b 247 301 310 128 247 194 z "},"þ":{"ha":843,"x_min":0,"x_max":0,"o":"m 799 394 b 521 704 799 578 682 704 b 288 583 418 704 342 661 l 360 1033 l 197 1033 l -17 -317 l 146 -317 l 210 110 b 438 -17 244 33 335 -17 b 799 394 644 -17 799 154 z m 635 385 b 411 128 635 240 536 128 b 247 301 308 128 247 194 b 472 561 247 447 347 561 b 635 385 572 561 635 490 z "},"q":{"ha":844,"x_min":0,"x_max":0,"o":"m 44 293 b 322 -17 44 110 161 -17 b 556 106 424 -17 501 26 l 490 -318 l 653 -318 l 811 686 l 661 686 l 632 579 b 404 704 599 654 508 704 b 44 293 199 704 44 535 z m 207 303 b 432 561 207 449 307 561 b 596 388 535 561 596 494 b 371 128 596 242 496 128 b 207 303 271 128 207 197 z "},"r":{"ha":533,"x_min":0,"x_max":0,"o":"m 561 690 b 486 699 538 696 511 699 b 288 581 397 699 325 653 l 293 686 l 142 686 l 33 0 l 196 0 l 250 339 b 475 538 271 471 357 538 l 536 538 z "},"ŕ":{"ha":533,"x_min":0,"x_max":0,"o":"m 579 972 l 422 972 l 289 771 l 415 771 z m 561 690 b 486 699 538 696 511 699 b 288 581 397 699 325 653 l 293 686 l 142 686 l 33 0 l 196 0 l 250 339 b 475 538 271 471 357 538 l 536 538 z "},"ř":{"ha":533,"x_min":0,"x_max":0,"o":"m 275 772 l 443 772 l 599 985 l 464 985 l 365 849 l 308 985 l 186 985 z m 561 690 b 486 699 538 696 511 699 b 288 581 397 699 325 653 l 293 686 l 142 686 l 33 0 l 196 0 l 250 339 b 475 538 271 471 357 538 l 536 538 z "},"ŗ":{"ha":533,"x_min":0,"x_max":0,"o":"m 561 690 b 486 699 538 696 511 699 b 288 581 397 699 325 653 l 293 686 l 142 686 l 33 0 l 196 0 l 250 339 b 475 538 271 471 357 538 l 536 538 z m 178 -135 b 104 -50 178 -83 150 -50 b 4 -146 47 -50 4 -92 b 67 -208 4 -182 29 -208 b 99 -201 79 -208 90 -206 b -3 -254 89 -240 56 -260 l -11 -310 b 178 -135 100 -321 178 -237 z "},"s":{"ha":629,"x_min":0,"x_max":0,"o":"m 10 206 b 276 -15 10 72 117 -15 b 568 211 457 -15 568 71 b 424 382 568 294 522 349 l 308 419 b 231 503 256 438 231 464 b 336 582 231 553 269 582 b 440 485 401 582 439 547 l 597 485 b 349 704 597 617 499 704 b 75 486 181 704 75 619 b 226 307 75 396 131 338 l 343 268 b 411 193 393 251 411 232 b 288 108 411 142 361 108 b 167 206 215 108 169 144 z "},"ś":{"ha":629,"x_min":0,"x_max":0,"o":"m 590 982 l 433 982 l 300 781 l 426 781 z m 10 206 b 276 -15 10 72 117 -15 b 568 211 457 -15 568 71 b 424 382 568 294 522 349 l 308 419 b 231 503 256 438 231 464 b 336 582 231 553 269 582 b 440 485 401 582 439 547 l 597 485 b 349 704 597 617 499 704 b 75 486 181 704 75 619 b 226 307 75 396 131 338 l 343 268 b 411 193 393 251 411 232 b 288 108 411 142 361 108 b 167 206 215 108 169 144 z "},"š":{"ha":629,"x_min":0,"x_max":0,"o":"m 286 782 l 454 782 l 610 994 l 475 994 l 376 858 l 319 994 l 197 994 z m 10 206 b 276 -15 10 72 117 -15 b 568 211 457 -15 568 71 b 424 382 568 294 522 349 l 308 419 b 231 503 256 438 231 464 b 336 582 231 553 269 582 b 440 485 401 582 439 547 l 597 485 b 349 704 597 617 499 704 b 75 486 181 704 75 619 b 226 307 75 396 131 338 l 343 268 b 411 193 393 251 411 232 b 288 108 411 142 361 108 b 167 206 215 108 169 144 z "},"ş":{"ha":629,"x_min":0,"x_max":0,"o":"m 10 206 b 219 -11 10 89 92 7 l 174 -83 l 183 -131 b 251 -117 207 -121 228 -117 b 303 -160 283 -117 303 -132 b 222 -217 303 -196 271 -217 b 136 -192 192 -217 164 -207 l 124 -268 b 226 -293 146 -282 185 -293 b 394 -151 328 -293 394 -237 b 296 -56 394 -89 343 -56 b 257 -61 281 -56 268 -58 l 286 -15 b 568 211 461 -12 568 74 b 424 382 568 294 522 349 l 308 419 b 231 503 256 438 231 464 b 336 582 231 553 269 582 b 440 485 401 582 439 547 l 597 485 b 349 704 597 617 499 704 b 75 486 181 704 75 619 b 226 307 75 396 131 338 l 343 268 b 411 193 393 251 411 232 b 288 108 411 142 361 108 b 167 206 215 108 169 144 z "},"ŝ":{"ha":629,"x_min":0,"x_max":0,"o":"m 292 781 l 390 915 l 447 781 l 568 781 l 481 993 l 313 993 l 157 781 z m 10 206 b 276 -15 10 72 117 -15 b 568 211 457 -15 568 71 b 424 382 568 294 522 349 l 308 419 b 231 503 256 438 231 464 b 336 582 231 553 269 582 b 440 485 401 582 439 547 l 597 485 b 349 704 597 617 499 704 b 75 486 181 704 75 619 b 226 307 75 396 131 338 l 343 268 b 411 193 393 251 411 232 b 288 108 411 142 361 108 b 167 206 215 108 169 144 z "},"ș":{"ha":629,"x_min":0,"x_max":0,"o":"m 10 206 b 276 -15 10 72 117 -15 b 568 211 457 -15 568 71 b 424 382 568 294 522 349 l 308 419 b 231 503 256 438 231 464 b 336 582 231 553 269 582 b 440 485 401 582 439 547 l 597 485 b 349 704 597 617 499 704 b 75 486 181 704 75 619 b 226 307 75 396 131 338 l 343 268 b 411 193 393 251 411 232 b 288 108 411 142 361 108 b 167 206 215 108 169 144 z m 326 -133 b 251 -49 326 -82 297 -49 b 151 -144 196 -49 151 -90 b 214 -207 151 -181 176 -207 b 247 -200 226 -207 239 -204 b 146 -253 238 -239 204 -258 l 138 -308 b 326 -133 249 -319 326 -237 z "},"ß":{"ha":808,"x_min":0,"x_max":0,"o":"m 196 0 l 311 731 b 485 897 328 836 385 897 b 608 779 557 897 608 854 b 449 628 608 689 542 628 l 386 628 l 364 494 l 428 494 b 607 340 532 494 607 440 b 396 150 607 221 521 150 l 290 150 l 268 10 b 393 0 294 3 346 0 b 772 343 625 0 772 135 b 622 567 772 436 722 526 b 771 794 708 604 771 679 b 496 1033 771 929 664 1033 b 146 715 285 1033 178 913 l 33 0 z "},"t":{"ha":461,"x_min":0,"x_max":0,"o":"m 258 0 l 344 550 l 475 550 l 497 686 l 367 686 l 400 899 l 238 899 l 204 686 l 74 686 l 51 550 l 182 550 l 96 0 z "},"ŧ":{"ha":461,"x_min":0,"x_max":0,"o":"m 258 0 l 304 294 l 401 294 l 421 421 l 325 421 l 344 550 l 475 550 l 497 686 l 367 686 l 400 899 l 238 899 l 204 686 l 74 686 l 51 550 l 182 550 l 163 421 l 65 421 l 46 294 l 142 294 l 96 0 z "},"ť":{"ha":461,"x_min":0,"x_max":0,"o":"m 429 767 l 529 767 l 604 1015 l 469 1015 z m 258 0 l 344 550 l 475 550 l 497 686 l 367 686 l 400 899 l 238 899 l 204 686 l 74 686 l 51 550 l 182 550 l 96 0 z "},"ţ":{"ha":461,"x_min":0,"x_max":0,"o":"m 258 0 l 344 550 l 475 550 l 497 686 l 367 686 l 400 899 l 238 899 l 204 686 l 74 686 l 51 550 l 182 550 l 96 0 l 146 0 l 93 -85 l 101 -131 b 171 -118 125 -122 146 -118 b 222 -161 203 -118 222 -133 b 142 -218 222 -197 190 -218 b 54 -193 111 -218 82 -208 l 43 -269 b 146 -294 65 -283 103 -294 b 313 -153 247 -294 313 -239 b 214 -57 313 -90 261 -57 b 176 -62 199 -57 188 -58 l 217 0 z "},"ț":{"ha":461,"x_min":0,"x_max":0,"o":"m 258 0 l 344 550 l 475 550 l 497 686 l 367 686 l 400 899 l 238 899 l 204 686 l 74 686 l 51 550 l 182 550 l 96 0 z m 246 -135 b 171 -50 246 -83 217 -50 b 71 -146 115 -50 71 -92 b 133 -208 71 -182 96 -208 b 165 -201 144 -208 156 -207 b 65 -254 156 -240 122 -260 l 57 -310 b 246 -135 168 -321 246 -237 z "},"u":{"ha":793,"x_min":0,"x_max":0,"o":"m 596 686 l 539 318 b 354 129 519 197 453 129 b 236 307 265 129 218 196 l 297 686 l 135 686 l 68 268 b 289 -18 42 107 138 -18 b 501 93 381 -18 442 17 l 500 0 l 651 0 l 760 686 z "},"ú":{"ha":793,"x_min":0,"x_max":0,"o":"m 707 969 l 550 969 l 415 768 l 542 768 z m 596 686 l 539 318 b 354 129 519 197 453 129 b 236 307 265 129 218 196 l 297 686 l 135 686 l 68 268 b 289 -18 42 107 138 -18 b 501 93 381 -18 442 17 l 500 0 l 651 0 l 760 686 z "},"û":{"ha":793,"x_min":0,"x_max":0,"o":"m 407 768 l 507 903 l 563 768 l 685 768 l 596 979 l 428 979 l 274 768 z m 596 686 l 539 318 b 354 129 519 197 453 129 b 236 307 265 129 218 196 l 297 686 l 135 686 l 68 268 b 289 -18 42 107 138 -18 b 501 93 381 -18 442 17 l 500 0 l 651 0 l 760 686 z "},"ü":{"ha":793,"x_min":0,"x_max":0,"o":"m 363 783 b 467 890 418 783 467 833 b 390 967 467 935 435 967 b 285 860 333 967 285 918 b 363 783 285 814 315 783 z m 603 783 b 707 890 660 783 707 833 b 631 967 707 936 675 967 b 526 860 574 967 526 918 b 603 783 526 814 556 783 z m 596 686 l 539 318 b 354 129 519 197 453 129 b 236 307 265 129 218 196 l 297 686 l 135 686 l 68 268 b 289 -18 42 107 138 -18 b 501 93 381 -18 442 17 l 500 0 l 651 0 l 760 686 z "},"ù":{"ha":793,"x_min":0,"x_max":0,"o":"m 536 768 l 468 969 l 324 969 l 422 768 z m 596 686 l 539 318 b 354 129 519 197 453 129 b 236 307 265 129 218 196 l 297 686 l 135 686 l 68 268 b 289 -18 42 107 138 -18 b 501 93 381 -18 442 17 l 500 0 l 651 0 l 760 686 z "},"ű":{"ha":793,"x_min":0,"x_max":0,"o":"m 606 969 l 465 969 l 324 768 l 443 768 z m 815 969 l 674 969 l 525 768 l 644 768 z m 596 686 l 539 318 b 354 129 519 197 453 129 b 236 307 265 129 218 196 l 297 686 l 135 686 l 68 268 b 289 -18 42 107 138 -18 b 501 93 381 -18 442 17 l 500 0 l 651 0 l 760 686 z "},"ū":{"ha":793,"x_min":0,"x_max":0,"o":"m 307 821 l 669 821 l 688 936 l 325 936 z m 596 686 l 539 318 b 354 129 519 197 453 129 b 236 307 265 129 218 196 l 297 686 l 135 686 l 68 268 b 289 -18 42 107 138 -18 b 501 93 381 -18 442 17 l 500 0 l 651 0 l 760 686 z "},"ų":{"ha":793,"x_min":0,"x_max":0,"o":"m 550 0 b 418 -161 471 -31 418 -93 b 535 -268 418 -222 461 -268 b 603 -256 563 -268 582 -264 l 621 -146 b 582 -154 607 -151 592 -154 b 536 -112 554 -154 536 -136 b 650 0 536 -71 582 -24 l 651 0 l 760 686 l 596 686 l 539 318 b 354 129 519 197 453 129 b 236 307 265 129 218 196 l 297 686 l 135 686 l 68 268 b 289 -18 42 107 138 -18 b 501 93 381 -18 442 17 l 500 0 z "},"ů":{"ha":793,"x_min":0,"x_max":0,"o":"m 483 751 b 681 949 596 751 681 836 b 524 1101 681 1038 615 1101 b 328 900 413 1101 328 1015 b 483 751 328 813 392 751 z m 493 842 b 424 913 451 842 424 869 b 515 1011 424 969 463 1011 b 585 940 557 1011 585 983 b 493 842 585 883 546 842 z m 596 686 l 539 318 b 354 129 519 197 453 129 b 236 307 265 129 218 196 l 297 686 l 135 686 l 68 268 b 289 -18 42 107 138 -18 b 501 93 381 -18 442 17 l 500 0 l 651 0 l 760 686 z "},"ũ":{"ha":793,"x_min":0,"x_max":0,"o":"m 349 778 b 410 860 357 835 374 860 b 589 778 469 860 494 778 b 740 971 678 778 729 846 l 639 971 b 579 889 632 915 617 889 b 399 971 513 889 489 971 b 250 778 315 971 257 897 z m 596 686 l 539 318 b 354 129 519 197 453 129 b 236 307 265 129 218 196 l 297 686 l 135 686 l 68 268 b 289 -18 42 107 138 -18 b 501 93 381 -18 442 17 l 500 0 l 651 0 l 760 686 z "},"v":{"ha":725,"x_min":0,"x_max":0,"o":"m 221 0 l 382 0 l 772 686 l 592 686 l 415 361 b 326 175 385 303 353 233 b 294 361 317 239 307 296 l 226 686 l 63 686 z "},"w":{"ha":1079,"x_min":0,"x_max":0,"o":"m 181 0 l 342 0 l 478 303 b 560 503 507 372 544 464 b 581 306 561 468 572 369 l 629 0 l 779 0 l 1119 686 l 942 686 l 801 383 b 729 208 783 344 753 268 b 713 383 725 258 717 353 l 671 686 l 504 686 l 364 383 b 292 208 335 319 311 261 b 275 383 288 269 282 333 l 233 686 l 69 686 z "},"ẃ":{"ha":1079,"x_min":0,"x_max":0,"o":"m 831 969 l 672 969 l 539 768 l 665 768 z m 181 0 l 342 0 l 478 303 b 560 503 507 372 544 464 b 581 306 561 468 572 369 l 629 0 l 779 0 l 1119 686 l 942 686 l 801 383 b 729 208 783 344 753 268 b 713 383 725 258 717 353 l 671 686 l 504 686 l 364 383 b 292 208 335 319 311 261 b 275 383 288 269 282 333 l 233 686 l 69 686 z "},"ŵ":{"ha":1079,"x_min":0,"x_max":0,"o":"m 531 768 l 629 903 l 686 768 l 808 768 l 719 979 l 551 979 l 396 768 z m 181 0 l 342 0 l 478 303 b 560 503 507 372 544 464 b 581 306 561 468 572 369 l 629 0 l 779 0 l 1119 686 l 942 686 l 801 383 b 729 208 783 344 753 268 b 713 383 725 258 717 353 l 671 686 l 504 686 l 364 383 b 292 208 335 319 311 261 b 275 383 288 269 282 333 l 233 686 l 69 686 z "},"ẅ":{"ha":1079,"x_min":0,"x_max":0,"o":"m 485 783 b 590 890 542 783 590 833 b 513 967 590 935 558 967 b 408 860 456 967 408 918 b 485 783 408 814 439 783 z m 725 783 b 831 890 782 783 831 833 b 753 967 831 936 799 967 b 650 860 697 967 650 918 b 725 783 650 814 679 783 z m 181 0 l 342 0 l 478 303 b 560 503 507 372 544 464 b 581 306 561 468 572 369 l 629 0 l 779 0 l 1119 686 l 942 686 l 801 383 b 729 208 783 344 753 268 b 713 383 725 258 717 353 l 671 686 l 504 686 l 364 383 b 292 208 335 319 311 261 b 275 383 288 269 282 333 l 233 686 l 69 686 z "},"ẁ":{"ha":1079,"x_min":0,"x_max":0,"o":"m 660 768 l 592 969 l 446 969 l 544 768 z m 181 0 l 342 0 l 478 303 b 560 503 507 372 544 464 b 581 306 561 468 572 369 l 629 0 l 779 0 l 1119 686 l 942 686 l 801 383 b 729 208 783 344 753 268 b 713 383 725 258 717 353 l 671 686 l 504 686 l 364 383 b 292 208 335 319 311 261 b 275 383 288 269 282 333 l 233 686 l 69 686 z "},"x":{"ha":693,"x_min":0,"x_max":0,"o":"m 156 0 l 332 231 l 443 0 l 621 0 l 449 338 l 735 686 l 542 686 l 363 449 l 246 686 l 68 686 l 247 336 l -40 0 z "},"y":{"ha":715,"x_min":0,"x_max":0,"o":"m -78 -317 b 43 -332 -43 -326 -6 -332 b 301 -153 167 -332 240 -261 l 761 686 l 585 686 l 321 181 l 226 686 l 63 686 l 217 -18 l 183 -83 b 42 -179 144 -160 96 -179 l -56 -179 z "},"ý":{"ha":715,"x_min":0,"x_max":0,"o":"m 660 969 l 501 969 l 368 768 l 494 768 z m -78 -317 b 43 -332 -43 -326 -6 -332 b 301 -153 167 -332 240 -261 l 761 686 l 585 686 l 321 181 l 226 686 l 63 686 l 217 -18 l 183 -83 b 42 -179 144 -160 96 -179 l -56 -179 z "},"ŷ":{"ha":715,"x_min":0,"x_max":0,"o":"m 360 768 l 458 903 l 515 768 l 638 768 l 549 979 l 381 979 l 225 768 z m -78 -317 b 43 -332 -43 -326 -6 -332 b 301 -153 167 -332 240 -261 l 761 686 l 585 686 l 321 181 l 226 686 l 63 686 l 217 -18 l 183 -83 b 42 -179 144 -160 96 -179 l -56 -179 z "},"ÿ":{"ha":715,"x_min":0,"x_max":0,"o":"m 314 783 b 419 890 371 783 419 833 b 342 967 419 935 388 967 b 238 860 285 967 238 918 b 314 783 238 814 268 783 z m 554 783 b 660 890 611 783 660 833 b 582 967 660 936 628 967 b 479 860 526 967 479 918 b 554 783 479 814 508 783 z m -78 -317 b 43 -332 -43 -326 -6 -332 b 301 -153 167 -332 240 -261 l 761 686 l 585 686 l 321 181 l 226 686 l 63 686 l 217 -18 l 183 -83 b 42 -179 144 -160 96 -179 l -56 -179 z "},"ỳ":{"ha":715,"x_min":0,"x_max":0,"o":"m 489 768 l 421 969 l 275 969 l 374 768 z m -78 -317 b 43 -332 -43 -326 -6 -332 b 301 -153 167 -332 240 -261 l 761 686 l 585 686 l 321 181 l 226 686 l 63 686 l 217 -18 l 183 -83 b 42 -179 144 -160 96 -179 l -56 -179 z "},"z":{"ha":644,"x_min":0,"x_max":0,"o":"m 538 0 l 560 136 l 222 136 l 625 550 l 647 686 l 107 686 l 85 550 l 418 550 l 19 135 l -1 0 z "},"ź":{"ha":644,"x_min":0,"x_max":0,"o":"m 618 969 l 461 969 l 328 768 l 454 768 z m 538 0 l 560 136 l 222 136 l 625 550 l 647 686 l 107 686 l 85 550 l 418 550 l 19 135 l -1 0 z "},"ž":{"ha":644,"x_min":0,"x_max":0,"o":"m 313 769 l 482 769 l 636 982 l 503 982 l 403 846 l 347 982 l 225 982 z m 538 0 l 560 136 l 222 136 l 625 550 l 647 686 l 107 686 l 85 550 l 418 550 l 19 135 l -1 0 z "},"ż":{"ha":644,"x_min":0,"x_max":0,"o":"m 392 783 b 501 894 451 783 501 835 b 422 975 501 943 469 975 b 313 864 363 975 313 925 b 392 783 313 815 344 783 z m 538 0 l 560 136 l 222 136 l 625 550 l 647 686 l 107 686 l 85 550 l 418 550 l 19 135 l -1 0 z "},"ﬀ":{"ha":897,"x_min":0,"x_max":0,"o":"m 74 686 l 51 550 l 150 550 l 63 0 l 224 0 l 311 550 l 588 550 l 500 0 l 663 0 l 749 550 l 910 550 l 932 686 l 769 686 l 783 772 b 908 888 796 853 835 888 l 965 888 l 988 1026 b 904 1033 961 1032 931 1033 b 624 772 747 1033 650 944 l 610 686 l 332 686 l 346 772 b 469 888 358 853 396 888 l 526 888 l 549 1026 b 465 1033 524 1032 493 1033 b 185 772 308 1033 211 943 l 171 686 z "},"ﬃ":{"ha":1244,"x_min":0,"x_max":0,"o":"m 74 686 l 51 550 l 150 550 l 63 0 l 224 0 l 311 550 l 588 550 l 500 0 l 663 0 l 749 550 l 1028 550 l 940 0 l 1103 0 l 1211 686 l 769 686 l 783 772 b 908 888 796 853 835 888 l 965 888 l 988 1026 b 904 1033 961 1032 931 1033 b 624 772 747 1033 650 944 l 610 686 l 332 686 l 346 772 b 469 888 358 853 396 888 l 526 888 l 549 1026 b 465 1033 524 1032 493 1033 b 185 772 308 1033 211 943 l 171 686 z m 1151 825 b 1267 942 1211 825 1267 882 b 1182 1026 1267 990 1232 1026 b 1067 910 1121 1026 1067 971 b 1151 825 1067 863 1101 825 z "},"ﬄ":{"ha":1240,"x_min":0,"x_max":0,"o":"m 74 686 l 51 550 l 150 550 l 63 0 l 224 0 l 311 550 l 588 550 l 500 0 l 663 0 l 749 550 l 1019 550 l 933 0 l 1096 0 l 1258 1033 l 1096 1033 l 1042 686 l 769 686 l 783 772 b 908 888 796 853 835 888 l 965 888 l 988 1026 b 904 1033 961 1032 931 1033 b 624 772 747 1033 650 944 l 610 686 l 332 686 l 346 772 b 469 888 358 853 396 888 l 526 888 l 549 1026 b 465 1033 524 1032 493 1033 b 185 772 308 1033 211 943 l 171 686 z "},"ﬁ":{"ha":806,"x_min":0,"x_max":0,"o":"m 501 0 l 664 0 l 772 686 l 332 686 l 346 772 b 469 888 358 853 396 888 l 526 888 l 549 1026 b 465 1033 524 1032 493 1033 b 185 772 308 1033 213 944 l 171 686 l 74 686 l 51 550 l 150 550 l 63 0 l 224 0 l 311 550 l 589 550 z m 713 825 b 829 942 774 825 829 882 b 744 1026 829 990 793 1026 b 628 910 682 1026 628 971 b 713 825 628 863 664 825 z "},"ﬂ":{"ha":800,"x_min":0,"x_max":0,"o":"m 656 0 l 819 1033 l 657 1033 l 601 686 l 332 686 l 346 772 b 469 888 358 853 396 888 l 526 888 l 549 1026 b 465 1033 524 1032 493 1033 b 185 772 308 1033 211 943 l 171 686 l 74 686 l 51 550 l 150 550 l 63 0 l 224 0 l 311 550 l 581 550 l 493 0 z "},"Ω":{"ha":897,"x_min":0,"x_max":0,"o":"m 346 0 l 365 122 b 242 332 289 160 242 240 b 469 571 242 476 329 571 b 661 385 583 571 661 494 b 463 122 661 260 583 169 l 443 0 l 754 0 l 774 122 l 644 122 b 807 407 743 185 807 294 b 475 707 807 581 669 707 b 103 347 263 707 103 556 b 199 122 103 258 136 181 l 53 122 l 33 0 z "},"π":{"ha":872,"x_min":0,"x_max":0,"o":"m 90 0 l 250 0 l 339 551 l 569 551 l 513 193 b 657 -4 496 79 538 -4 b 775 7 692 -4 731 0 l 797 142 l 732 142 b 675 207 682 142 668 164 l 728 551 l 861 551 l 882 686 l 75 686 l 53 551 l 178 551 z "},"₀":{"ha":588,"x_min":0,"x_max":0,"o":"m 4 99 b 224 -150 4 -56 86 -150 b 528 236 401 -150 528 14 b 310 485 528 390 446 485 b 4 99 132 485 4 318 z m 117 100 b 297 386 117 261 192 386 b 414 235 374 386 414 331 b 238 -51 414 72 340 -51 b 117 100 160 -51 117 3 z "},"₁":{"ha":346,"x_min":0,"x_max":0,"o":"m 179 372 l 97 -139 l 208 -139 l 306 474 l 50 474 l 33 372 z "},"₂":{"ha":488,"x_min":0,"x_max":0,"o":"m 379 -139 l 396 -36 l 168 -36 l 311 72 b 444 303 400 140 444 217 b 254 485 444 414 369 485 b 15 261 131 485 42 400 l 131 261 b 246 382 143 338 185 382 b 331 294 300 382 331 350 b 236 142 331 240 299 188 l -22 -53 l -36 -139 z "},"₃":{"ha":486,"x_min":0,"x_max":0,"o":"m 156 160 b 199 158 175 160 188 160 b 299 65 260 156 299 118 b 183 -47 299 -1 250 -47 b 92 54 122 -47 88 -10 l -19 54 b 182 -150 -25 -69 54 -150 b 411 72 317 -150 411 -58 b 269 239 411 157 356 219 l 443 378 l 458 474 l 76 474 l 60 372 l 303 372 l 131 235 l 119 160 z "},"₄":{"ha":515,"x_min":0,"x_max":0,"o":"m 440 -26 l 456 75 l 383 75 l 447 474 l 304 474 l -25 76 l -40 -26 l 261 -26 l 243 -139 l 350 -139 l 368 -26 z m 100 75 l 319 344 l 276 75 z "},"₅":{"ha":493,"x_min":0,"x_max":0,"o":"m -19 58 b 185 -150 -24 -68 58 -150 b 428 100 319 -150 428 -35 b 246 278 428 203 357 278 b 158 257 214 278 185 271 l 204 368 l 436 368 l 453 474 l 138 474 l 10 150 l 110 138 b 219 189 140 172 175 189 b 315 90 281 189 315 149 b 188 -47 315 13 260 -47 b 92 58 125 -47 88 -7 z "},"₆":{"ha":529,"x_min":0,"x_max":0,"o":"m 117 301 b -12 49 25 199 -12 129 b 199 -150 -12 -65 79 -150 b 456 101 346 -150 456 -43 b 264 286 456 210 376 286 b 232 282 254 286 243 285 l 407 474 l 271 474 z m 100 57 b 236 196 100 136 160 196 b 343 88 301 196 343 153 b 210 -50 343 7 286 -50 b 100 57 146 -50 100 -7 z "},"₇":{"ha":463,"x_min":0,"x_max":0,"o":"m 443 372 l 458 474 l 44 474 l 28 372 l 325 372 l 50 -139 l 171 -139 z "},"₈":{"ha":526,"x_min":0,"x_max":0,"o":"m -15 18 b 201 -150 -15 -82 74 -150 b 443 49 344 -150 443 -68 b 356 181 443 111 410 163 b 463 329 422 203 463 258 b 274 485 463 424 383 485 b 58 300 149 485 58 408 b 122 192 58 253 81 213 b -15 18 40 169 -15 101 z m 153 301 b 265 389 153 354 199 389 b 361 315 322 389 361 361 b 250 226 361 263 317 226 b 153 301 190 226 153 258 z m 99 33 b 224 135 99 93 149 135 b 333 53 290 135 333 103 b 210 -49 333 -8 285 -49 b 99 33 144 -49 99 -18 z "},"₉":{"ha":529,"x_min":0,"x_max":0,"o":"m 356 32 b 485 286 449 135 485 204 b 274 483 485 400 394 483 b 17 232 128 483 17 378 b 210 49 17 125 97 49 b 242 53 219 49 231 50 l 67 -139 l 201 -139 z m 372 276 b 238 139 372 197 314 139 b 129 247 172 139 129 182 b 263 385 129 326 188 385 b 372 276 326 385 372 340 z "},"⁰":{"ha":592,"x_min":0,"x_max":0,"o":"m 4 692 b 224 443 4 538 86 443 b 528 829 401 443 528 607 b 310 1078 528 983 446 1078 b 4 692 132 1078 4 911 z m 117 693 b 297 979 117 854 192 979 b 414 828 374 979 414 924 b 238 542 414 665 340 542 b 117 693 160 542 117 596 z "},"¹":{"ha":353,"x_min":0,"x_max":0,"o":"m 179 969 l 97 458 l 208 458 l 306 1071 l 50 1071 l 33 969 z "},"²":{"ha":488,"x_min":0,"x_max":0,"o":"m 474 458 l 490 561 l 263 561 l 406 669 b 539 900 494 738 539 814 b 349 1082 539 1011 464 1082 b 110 858 225 1082 136 997 l 225 858 b 340 979 238 935 279 979 b 425 892 394 979 425 947 b 331 739 425 838 393 785 l 72 544 l 58 458 z "},"³":{"ha":494,"x_min":0,"x_max":0,"o":"m 156 757 b 199 756 175 757 188 757 b 299 663 260 753 299 715 b 183 550 299 596 250 550 b 92 651 122 550 88 588 l -19 651 b 182 447 -25 528 54 447 b 411 669 317 447 411 539 b 269 836 411 754 356 817 l 443 975 l 458 1071 l 76 1071 l 60 969 l 303 969 l 131 832 l 119 757 z "},"⁴":{"ha":526,"x_min":0,"x_max":0,"o":"m 440 571 l 456 672 l 383 672 l 447 1071 l 304 1071 l -25 674 l -40 571 l 261 571 l 243 458 l 350 458 l 368 571 z m 100 672 l 319 942 l 276 672 z "},"⁵":{"ha":503,"x_min":0,"x_max":0,"o":"m -19 656 b 185 447 -24 529 58 447 b 428 697 319 447 428 563 b 246 875 428 800 357 875 b 158 854 214 875 185 868 l 204 965 l 436 965 l 453 1071 l 138 1071 l 10 747 l 110 735 b 219 786 140 769 175 786 b 315 688 281 786 315 746 b 188 550 315 610 260 550 b 92 656 125 550 88 590 z "},"⁶":{"ha":529,"x_min":0,"x_max":0,"o":"m 211 899 b 82 646 119 796 82 726 b 293 447 82 532 174 447 b 550 699 440 447 550 554 b 358 883 550 807 471 883 b 326 879 349 883 338 882 l 501 1071 l 365 1071 z m 194 654 b 331 793 194 733 254 793 b 438 685 396 793 438 750 b 304 547 438 604 381 547 b 194 654 240 547 194 590 z "},"⁷":{"ha":463,"x_min":0,"x_max":0,"o":"m 538 969 l 553 1071 l 139 1071 l 122 969 l 419 969 l 144 458 l 265 458 z "},"⁸":{"ha":533,"x_min":0,"x_max":0,"o":"m -15 615 b 201 447 -15 515 74 447 b 443 646 344 447 443 529 b 356 778 443 708 410 760 b 463 926 422 800 463 856 b 274 1082 463 1021 383 1082 b 58 897 149 1082 58 1006 b 122 789 58 850 81 810 b -15 615 40 767 -15 699 z m 153 899 b 265 986 153 951 199 986 b 361 913 322 986 361 958 b 250 824 361 860 317 824 b 153 899 190 824 153 856 z m 99 631 b 224 732 99 690 149 732 b 333 650 290 732 333 700 b 210 549 333 589 285 549 b 99 631 144 549 99 579 z "},"⁹":{"ha":529,"x_min":0,"x_max":0,"o":"m 451 629 b 581 883 543 732 581 801 b 369 1081 581 997 489 1081 b 113 829 222 1081 113 975 b 304 646 113 722 192 646 b 336 650 314 646 325 647 l 161 458 l 297 458 z m 467 874 b 332 736 467 794 408 736 b 225 844 267 736 225 779 b 358 982 225 924 282 982 b 467 874 422 982 467 938 z "},"⁄":{"ha":207,"x_min":0,"x_max":0,"o":"m 592 986 l 460 986 l -339 0 l -207 0 z "},"½":{"ha":986,"x_min":0,"x_max":0,"o":"m 228 932 l 163 518 l 258 518 l 336 1015 l 129 1015 l 115 932 z m 947 986 l 815 986 l 17 0 l 149 0 z m 901 0 l 915 89 l 729 89 l 825 167 b 943 353 908 232 943 283 b 783 506 943 443 878 506 b 590 336 676 506 607 446 l 688 336 b 776 418 696 388 729 418 b 843 350 817 418 843 392 b 763 231 843 307 821 278 l 563 72 l 551 0 z "},"¼":{"ha":935,"x_min":0,"x_max":0,"o":"m 228 932 l 163 518 l 258 518 l 336 1015 l 129 1015 l 115 932 z m 947 986 l 815 986 l 17 0 l 149 0 z m 708 94 l 693 0 l 785 0 l 800 94 l 863 94 l 878 181 l 814 181 l 863 497 l 735 497 l 485 174 l 472 94 z m 599 181 l 754 385 l 722 181 z "},"¾":{"ha":989,"x_min":0,"x_max":0,"o":"m 81 681 b 251 508 81 578 149 508 b 429 679 357 508 429 579 b 322 824 429 747 386 803 l 456 933 l 468 1015 l 156 1015 l 142 926 l 331 926 l 200 819 l 190 756 l 235 756 b 331 672 293 756 331 724 b 256 597 331 626 301 597 b 176 681 207 597 176 629 z m 1001 986 l 868 986 l 69 0 l 201 0 z m 761 94 l 746 0 l 838 0 l 853 94 l 917 94 l 931 181 l 868 181 l 917 497 l 788 497 l 538 174 l 525 94 z m 651 181 l 806 383 l 775 181 z "},"⅛":{"ha":1004,"x_min":0,"x_max":0,"o":"m 228 932 l 163 518 l 258 518 l 336 1015 l 129 1015 l 115 932 z m 947 986 l 815 986 l 17 0 l 149 0 z m 568 135 b 739 -8 568 56 643 -8 b 935 151 854 -8 935 58 b 864 258 935 201 908 242 b 949 375 915 274 949 319 b 800 504 949 453 889 504 b 628 360 700 504 628 444 b 675 268 628 319 646 286 b 568 135 611 251 568 200 z m 711 358 b 794 424 711 397 746 424 b 864 364 835 424 864 400 b 785 300 864 326 829 300 b 711 358 739 300 711 322 z m 664 146 b 757 221 664 189 703 221 b 839 153 807 221 839 194 b 747 78 839 110 799 78 b 664 146 697 78 664 104 z "},"⅜":{"ha":1058,"x_min":0,"x_max":0,"o":"m 81 681 b 251 508 81 578 149 508 b 429 679 357 508 429 579 b 322 824 429 747 386 803 l 456 933 l 468 1015 l 156 1015 l 142 926 l 331 926 l 200 819 l 190 756 l 235 756 b 331 672 293 756 331 724 b 256 597 331 626 301 597 b 176 681 207 597 176 629 z m 1001 986 l 868 986 l 69 0 l 201 0 z m 621 135 b 792 -8 621 56 697 -8 b 989 151 907 -8 989 58 b 918 258 989 200 963 242 b 1001 375 969 274 1001 319 b 854 504 1001 453 943 504 b 681 360 753 504 681 444 b 728 268 681 319 699 286 b 621 135 664 251 621 200 z m 764 358 b 847 424 764 397 799 424 b 917 364 889 424 917 400 b 838 300 917 326 883 300 b 764 358 793 300 764 322 z m 717 146 b 810 221 717 189 756 221 b 892 153 860 221 892 194 b 800 78 892 110 853 78 b 717 146 751 78 717 104 z "},"⅝":{"ha":1089,"x_min":0,"x_max":0,"o":"m 264 508 b 460 710 375 508 460 594 b 314 861 460 803 404 861 b 239 843 285 861 261 856 l 275 926 l 471 926 l 485 1015 l 218 1015 l 114 751 l 203 738 b 285 781 222 767 251 781 b 360 703 332 781 360 751 b 265 597 360 642 321 597 b 186 681 217 597 186 629 l 89 681 b 264 508 89 576 158 508 z m 1032 986 l 900 986 l 101 0 l 233 0 z m 651 135 b 822 -8 651 56 728 -8 b 1019 151 939 -8 1019 58 b 949 258 1019 201 993 242 b 1032 375 1000 274 1032 319 b 885 504 1032 453 974 504 b 711 360 785 504 711 444 b 760 268 711 319 731 286 b 651 135 696 251 651 200 z m 796 358 b 879 424 796 397 829 424 b 947 364 919 424 947 400 b 868 300 947 326 914 300 b 796 358 824 300 796 322 z m 749 146 b 840 221 749 189 786 221 b 924 153 892 221 924 194 b 832 78 924 110 883 78 b 749 146 782 78 749 104 z "},"⅞":{"ha":983,"x_min":0,"x_max":0,"o":"m 361 926 l 131 518 l 238 518 l 464 926 l 478 1015 l 124 1015 l 110 926 z m 926 986 l 794 986 l -4 0 l 128 0 z m 546 135 b 717 -8 546 56 622 -8 b 914 151 833 -8 914 58 b 843 258 914 201 888 242 b 926 375 894 274 926 319 b 779 504 926 453 868 504 b 606 360 679 504 606 444 b 654 268 606 319 625 286 b 546 135 590 251 546 200 z m 690 358 b 774 424 690 397 724 424 b 842 364 814 424 842 400 b 763 300 842 326 808 300 b 690 358 718 300 690 322 z m 643 146 b 735 221 643 189 681 221 b 818 153 786 221 818 194 b 726 78 818 110 778 78 b 643 146 676 78 643 104 z "},"*":{"ha":574,"x_min":0,"x_max":0,"o":"m 197 790 b 300 761 229 778 268 765 b 210 676 271 739 240 715 l 142 594 l 213 544 l 279 622 b 349 724 314 663 335 694 b 389 625 356 692 368 661 l 432 544 l 506 594 l 465 674 b 403 761 446 711 432 733 b 518 786 435 765 475 771 l 615 819 l 596 903 l 501 872 b 394 822 449 856 426 840 b 422 936 410 867 415 890 l 438 1035 l 350 1035 l 335 936 b 329 822 326 890 325 858 b 238 869 314 833 281 854 l 153 900 l 111 824 z "},"⁂":{"ha":1267,"x_min":0,"x_max":0,"o":"m 543 790 b 646 761 575 778 614 765 b 556 676 617 739 586 715 l 488 594 l 558 544 l 625 622 b 694 724 660 663 681 694 b 735 625 701 692 714 661 l 778 544 l 851 594 l 811 674 b 749 761 792 711 778 733 b 864 786 781 765 821 771 l 961 819 l 942 903 l 847 872 b 740 822 794 856 772 840 b 768 936 756 867 761 890 l 783 1035 l 696 1035 l 681 936 b 675 822 672 890 671 858 b 583 869 660 833 626 854 l 499 900 l 457 824 z m 110 250 b 213 222 142 239 181 226 b 121 138 183 200 153 175 l 54 56 l 124 4 l 192 83 b 261 185 226 122 246 154 b 300 85 268 153 281 122 l 344 4 l 418 54 l 376 135 b 315 221 358 171 344 193 b 431 246 347 225 388 232 l 528 279 l 507 363 l 414 333 b 307 282 361 315 339 300 b 335 396 322 328 326 350 l 350 494 l 263 494 l 247 396 b 242 282 239 350 238 318 b 149 331 225 294 192 314 l 65 361 l 22 283 z m 806 250 b 908 221 838 238 876 225 b 818 136 879 199 849 174 l 750 54 l 821 4 l 889 82 b 957 183 924 122 943 154 b 997 85 964 151 976 121 l 1040 4 l 1115 53 l 1074 133 b 1013 221 1056 169 1040 193 b 1126 246 1043 224 1083 231 l 1224 278 l 1204 363 l 1110 332 b 1003 281 1057 315 1035 300 b 1031 394 1018 326 1024 349 l 1047 493 l 960 493 l 943 394 b 938 282 936 349 935 317 b 846 329 922 293 889 314 l 761 360 l 719 283 z "},"\\":{"ha":550,"x_min":0,"x_max":0,"o":"m 265 1015 l 107 1015 l 339 0 l 496 0 z "},"·":{"ha":454,"x_min":0,"x_max":0,"o":"m 211 239 b 382 408 304 239 382 317 b 257 532 382 482 332 532 b 86 363 164 532 86 453 b 211 239 86 289 136 239 z "},"•":{"ha":590,"x_min":0,"x_max":0,"o":"m 269 158 b 517 404 404 158 517 272 b 336 592 517 514 443 592 b 83 342 199 592 83 476 b 269 158 83 233 160 158 z "},":":{"ha":424,"x_min":0,"x_max":0,"o":"m 235 489 b 363 614 303 489 363 547 b 269 707 363 669 325 707 b 142 581 201 707 142 647 b 235 489 142 525 178 489 z m 154 -17 b 282 108 222 -17 282 42 b 189 201 282 164 246 201 b 63 75 121 201 63 142 b 154 -17 63 19 99 -17 z "},",":{"ha":397,"x_min":0,"x_max":0,"o":"m 265 92 b 169 201 265 157 228 201 b 49 76 104 201 49 143 b 132 -3 49 31 83 -3 b 169 6 147 -3 158 0 b 49 -92 164 -40 113 -79 l 38 -157 b 265 92 163 -142 265 -28 z "},"…":{"ha":1088,"x_min":0,"x_max":0,"o":"m 140 -17 b 268 108 208 -17 268 42 b 175 201 268 164 232 201 b 49 75 107 201 49 142 b 140 -17 49 19 85 -17 z m 486 -17 b 614 108 554 -17 614 42 b 521 201 614 164 578 201 b 394 75 453 201 394 142 b 486 -17 394 19 431 -17 z m 832 -17 b 960 108 900 -17 960 42 b 867 201 960 164 924 201 b 740 75 799 201 740 142 b 832 -17 740 19 776 -17 z "},"!":{"ha":438,"x_min":0,"x_max":0,"o":"m 276 304 b 385 781 313 411 357 608 l 421 1015 l 229 1015 l 193 781 b 146 304 163 586 146 407 z m 160 -17 b 288 108 228 -17 288 42 b 194 201 288 164 251 201 b 68 75 126 201 68 142 b 160 -17 68 19 104 -17 z "},"¡":{"ha":438,"x_min":0,"x_max":0,"o":"m 329 1032 b 201 907 261 1032 201 975 b 294 814 201 851 238 814 b 422 940 363 814 422 874 b 329 1032 422 996 386 1032 z m 213 711 b 104 235 176 604 132 407 l 68 0 l 260 0 l 296 235 b 343 711 326 429 343 608 z "},"#":{"ha":979,"x_min":0,"x_max":0,"o":"m 100 419 l 44 265 l 176 265 l 83 0 l 244 0 l 338 265 l 515 265 l 422 0 l 583 0 l 676 265 l 831 265 l 885 419 l 731 419 l 792 594 l 929 594 l 986 749 l 846 749 l 939 1015 l 776 1015 l 683 749 l 507 749 l 600 1015 l 439 1015 l 346 749 l 197 749 l 140 594 l 292 594 l 231 419 z m 392 419 l 453 594 l 629 594 l 568 419 z "},".":{"ha":396,"x_min":0,"x_max":0,"o":"m 140 -17 b 268 108 208 -17 268 42 b 175 201 268 164 232 201 b 49 75 107 201 49 142 b 140 -17 49 19 85 -17 z "},"?":{"ha":757,"x_min":0,"x_max":0,"o":"m 403 258 l 408 289 b 568 461 418 347 454 393 b 774 760 704 544 774 640 b 472 1035 774 922 650 1035 b 100 696 272 1035 129 906 l 271 696 b 456 881 283 811 353 881 b 597 751 542 881 597 831 b 446 550 597 678 560 628 b 260 289 335 474 275 389 l 254 258 z m 290 -17 b 418 108 356 -17 418 44 b 325 201 418 161 378 201 b 197 75 260 201 197 139 b 290 -17 197 24 238 -17 z "},"¿":{"ha":756,"x_min":0,"x_max":0,"o":"m 518 1033 b 390 908 453 1033 390 972 b 483 815 390 856 432 815 b 611 942 549 815 611 876 b 518 1033 611 993 571 1033 z m 406 758 l 400 726 b 240 556 392 668 356 624 b 35 257 104 472 35 376 b 336 -18 35 94 158 -18 b 708 321 536 -18 679 111 l 538 321 b 353 136 525 206 456 136 b 213 264 267 136 213 186 b 363 467 213 339 249 389 b 549 726 474 543 533 628 l 554 758 z "},"\"":{"ha":596,"x_min":0,"x_max":0,"o":"m 340 914 b 269 1022 360 976 328 1022 b 172 914 211 1022 174 983 l 167 614 l 253 614 z m 604 914 b 533 1022 624 976 592 1022 b 436 914 475 1022 438 983 l 431 614 l 517 614 z "},"'":{"ha":332,"x_min":0,"x_max":0,"o":"m 340 914 b 269 1022 360 976 328 1022 b 172 914 211 1022 174 983 l 167 614 l 253 614 z "},";":{"ha":424,"x_min":0,"x_max":0,"o":"m 235 489 b 363 614 303 489 363 547 b 269 707 363 669 326 707 b 143 581 201 707 143 647 b 235 489 143 525 179 489 z m 275 92 b 179 201 275 157 238 201 b 58 76 114 201 58 143 b 142 -3 58 31 93 -3 b 179 6 157 -3 168 0 b 58 -92 174 -40 122 -79 l 47 -157 b 275 92 171 -142 275 -28 z "},"/":{"ha":550,"x_min":0,"x_max":0,"o":"m 118 0 l 657 1015 l 483 1015 l -54 0 z "},"_":{"ha":743,"x_min":0,"x_max":0,"o":"m 6 -147 l 582 -147 l 601 -24 l 25 -24 z "},"{":{"ha":474,"x_min":0,"x_max":0,"o":"m 79 450 b 197 326 169 450 210 407 l 151 36 b 299 -129 138 -58 200 -129 l 390 -129 l 411 -3 l 350 -3 b 304 63 315 -3 299 22 l 349 346 b 267 504 360 426 332 482 b 403 683 349 535 386 588 l 446 967 b 513 1033 454 1013 474 1033 l 574 1033 l 593 1161 l 501 1161 b 303 996 389 1161 319 1103 l 257 703 b 101 581 244 624 190 581 z "},"}":{"ha":472,"x_min":0,"x_max":0,"o":"m 26 -129 b 225 36 139 -129 208 -72 l 271 328 b 426 450 283 408 338 450 l 447 582 b 331 704 358 582 318 625 l 375 994 b 228 1161 390 1089 326 1161 l 136 1161 l 117 1033 l 178 1033 b 222 968 211 1033 229 1008 l 179 685 b 261 526 167 606 196 550 b 125 347 178 497 140 443 l 81 64 b 15 -3 74 18 54 -3 l -46 -3 l -65 -129 z "},"[":{"ha":417,"x_min":0,"x_max":0,"o":"m 188 -3 l 350 1033 l 518 1033 l 538 1161 l 222 1161 l 19 -129 l 335 -129 l 354 -3 z "},"]":{"ha":417,"x_min":0,"x_max":0,"o":"m -67 -129 l 249 -129 l 451 1161 l 136 1161 l 117 1033 l 283 1033 l 121 -3 l -47 -3 z "},"(":{"ha":417,"x_min":0,"x_max":0,"o":"m 319 -265 b 219 218 257 -153 219 32 b 532 1081 219 519 346 867 l 393 1081 b 57 224 188 876 57 540 b 190 -265 57 33 106 -143 z "},")":{"ha":418,"x_min":0,"x_max":0,"o":"m 44 -265 b 381 592 250 -61 381 275 b 247 1081 381 782 332 958 l 118 1081 b 218 597 179 968 218 783 b -94 -265 218 296 92 -51 z "},"—":{"ha":1649,"x_min":0,"x_max":0,"o":"m 88 297 l 1546 297 l 1569 442 l 110 442 z "},"–":{"ha":1332,"x_min":0,"x_max":0,"o":"m 88 297 l 1229 297 l 1251 442 l 110 442 z "},"-":{"ha":608,"x_min":0,"x_max":0,"o":"m 79 299 l 515 299 l 539 444 l 101 444 z "},"«":{"ha":997,"x_min":0,"x_max":0,"o":"m 294 0 l 492 0 l 261 331 l 622 686 l 403 686 l 56 344 z m 669 0 l 867 0 l 636 331 l 997 686 l 778 686 l 431 344 z "},"»":{"ha":997,"x_min":0,"x_max":0,"o":"m 328 686 l 132 686 l 363 356 l 1 0 l 219 0 l 567 342 z m 703 686 l 507 686 l 738 356 l 376 0 l 594 0 l 942 342 z "},"‹":{"ha":622,"x_min":0,"x_max":0,"o":"m 294 0 l 492 0 l 261 331 l 622 686 l 403 686 l 56 344 z "},"›":{"ha":622,"x_min":0,"x_max":0,"o":"m 328 686 l 132 686 l 363 356 l 1 0 l 219 0 l 567 342 z "},"„":{"ha":657,"x_min":0,"x_max":0,"o":"m 254 82 b 163 185 254 144 218 185 b 46 64 99 185 46 132 b 119 -11 46 17 78 -11 b 157 -4 135 -11 146 -10 b 43 -100 150 -51 104 -87 l 32 -167 b 254 82 153 -151 254 -39 z m 526 82 b 435 185 526 144 490 185 b 318 64 371 185 318 132 b 392 -11 318 17 350 -11 b 429 -4 407 -11 418 -10 b 315 -100 422 -51 376 -87 l 304 -167 b 526 82 425 -151 526 -39 z "},"“":{"ha":657,"x_min":0,"x_max":0,"o":"m 368 804 b 294 881 368 851 338 881 b 257 872 281 881 268 878 b 371 968 264 919 311 957 l 382 1033 b 160 785 261 1019 160 907 b 251 682 160 724 196 682 b 368 804 317 682 368 738 z m 640 804 b 567 881 640 851 610 881 b 529 872 553 881 540 878 b 643 968 536 919 583 957 l 654 1033 b 432 785 533 1019 432 907 b 524 682 432 724 468 682 b 640 804 589 682 640 738 z "},"”":{"ha":657,"x_min":0,"x_max":0,"o":"m 388 931 b 297 1033 388 994 351 1033 b 179 911 232 1033 179 981 b 253 836 179 865 208 836 b 290 844 268 836 279 839 b 176 749 279 794 235 760 l 167 682 b 388 931 289 697 388 811 z m 660 931 b 569 1033 660 994 624 1033 b 451 911 504 1033 451 981 b 525 836 451 865 481 836 b 563 844 540 836 551 839 b 449 749 551 794 507 760 l 439 682 b 660 931 561 697 660 811 z "},"‘":{"ha":385,"x_min":0,"x_max":0,"o":"m 368 804 b 294 881 368 851 338 881 b 257 872 281 881 268 878 b 371 968 264 919 311 957 l 382 1033 b 160 785 261 1019 160 907 b 251 682 160 724 196 682 b 368 804 317 682 368 738 z "},"’":{"ha":385,"x_min":0,"x_max":0,"o":"m 388 931 b 297 1033 388 994 351 1033 b 179 911 232 1033 179 981 b 253 836 179 865 208 836 b 290 844 268 836 279 839 b 176 749 279 794 235 760 l 167 682 b 388 931 289 697 388 811 z "},"‚":{"ha":385,"x_min":0,"x_max":0,"o":"m 254 82 b 163 185 254 144 218 185 b 46 64 99 185 46 132 b 119 -11 46 17 78 -11 b 157 -4 135 -11 146 -10 b 43 -100 150 -51 104 -87 l 32 -167 b 254 82 153 -151 254 -39 z "}," ":{"ha":368,"x_min":0,"x_max":0,"o":""},"¢":{"ha":776,"x_min":0,"x_max":0,"o":"m 271 0 l 408 0 l 432 149 b 736 415 579 165 697 265 l 569 415 b 401 292 542 338 478 292 b 249 464 306 292 249 357 b 456 722 249 611 338 722 b 596 599 539 722 590 676 l 761 599 b 542 860 757 742 676 835 l 565 1015 l 428 1015 l 404 861 b 82 453 218 832 82 667 b 296 158 82 299 163 192 z "},"¤":{"ha":976,"x_min":0,"x_max":0,"o":"m 771 97 l 888 190 l 790 311 b 869 540 840 376 869 456 b 832 694 869 596 856 649 l 960 807 l 863 918 l 733 806 b 549 861 682 840 619 861 b 349 804 476 861 407 840 l 257 918 l 140 824 l 236 704 b 154 468 185 639 154 556 b 190 317 154 413 167 363 l 65 207 l 164 96 l 290 206 b 475 150 342 171 404 150 b 681 210 549 150 619 172 z m 717 528 b 485 297 717 401 622 297 b 306 482 372 297 306 381 b 538 714 306 611 400 714 b 717 528 650 714 717 631 z "},"$":{"ha":807,"x_min":0,"x_max":0,"o":"m 286 -132 l 390 -132 l 406 -18 b 753 297 615 -11 753 114 b 540 554 753 426 685 510 l 488 571 l 529 869 b 633 736 589 849 626 801 l 804 736 b 551 1024 797 882 696 992 l 568 1147 l 464 1147 l 449 1033 b 106 714 243 1028 106 903 b 331 449 106 586 183 494 l 365 438 l 325 143 b 201 279 251 161 208 208 l 29 279 b 303 -11 39 118 139 14 z m 275 736 b 426 879 275 818 332 871 l 388 601 b 275 736 311 626 275 668 z m 479 403 b 585 282 556 379 585 346 b 428 138 585 203 525 149 l 465 407 z "},"€":{"ha":844,"x_min":0,"x_max":0,"o":"m 556 -17 b 731 4 610 -17 669 -10 l 757 171 b 590 144 700 153 643 144 b 307 333 442 144 342 206 l 647 333 l 667 456 l 294 456 b 304 554 296 490 299 524 l 683 554 l 703 678 l 347 678 b 715 872 414 804 542 872 b 856 851 756 872 814 864 l 881 1011 b 732 1033 844 1024 789 1033 b 168 678 465 1033 256 896 l 79 678 l 60 554 l 133 554 b 124 456 128 522 125 490 l 43 456 l 24 333 l 132 333 b 556 -17 171 121 329 -17 z "},"ƒ":{"ha":850,"x_min":0,"x_max":0,"o":"m 136 564 l 113 411 l 342 411 l 221 -14 b 118 -96 206 -68 165 -96 l -1 -96 l -28 -251 l 89 -251 b 388 -37 269 -251 351 -165 l 514 411 l 776 411 l 801 564 l 557 564 l 618 778 b 721 872 638 850 679 872 l 858 872 l 883 1028 l 757 1028 b 447 785 603 1028 490 939 l 385 564 z "},"£":{"ha":885,"x_min":0,"x_max":0,"o":"m 469 0 b 831 335 683 0 793 101 l 657 335 b 461 160 629 204 581 160 l 219 160 b 361 401 310 197 361 286 b 358 446 361 415 360 431 l 625 446 l 646 574 l 339 574 b 326 707 332 617 326 661 b 506 881 326 811 397 881 b 681 725 607 881 671 824 l 853 725 b 514 1033 844 907 706 1033 b 157 694 304 1033 157 894 b 169 574 157 657 163 615 l 82 574 l 61 446 l 190 446 b 194 389 193 426 194 407 b 10 161 194 265 115 168 l -17 0 z "},"¥":{"ha":892,"x_min":0,"x_max":0,"o":"m 340 188 l 311 0 l 472 0 l 503 188 l 729 188 l 749 310 l 522 310 l 535 392 l 761 392 l 781 515 l 604 515 l 969 1015 l 769 1015 l 478 579 l 319 1015 l 135 1015 l 343 515 l 164 515 l 144 392 l 372 392 l 360 310 l 132 310 l 113 188 z "},"+":{"ha":917,"x_min":0,"x_max":0,"o":"m 150 535 l 126 401 l 399 401 l 354 119 l 493 119 l 538 401 l 807 401 l 829 535 l 558 535 l 603 815 l 464 815 l 419 535 z "},"−":{"ha":917,"x_min":0,"x_max":0,"o":"m 150 535 l 126 401 l 807 401 l 829 535 z "},"×":{"ha":917,"x_min":0,"x_max":0,"o":"m 306 794 l 200 710 l 386 475 l 118 239 l 208 140 l 468 371 l 650 140 l 756 226 l 569 461 l 838 697 l 747 794 l 488 565 z "},"÷":{"ha":917,"x_min":0,"x_max":0,"o":"m 499 586 b 615 701 557 586 615 644 b 529 788 615 749 578 788 b 411 671 469 788 411 732 b 499 586 411 625 447 586 z m 142 489 l 119 356 l 799 356 l 822 489 z m 414 57 b 531 172 472 57 531 114 b 446 258 531 219 494 258 b 326 143 385 258 326 201 b 414 57 326 96 364 57 z "},"=":{"ha":917,"x_min":0,"x_max":0,"o":"m 165 636 l 143 501 l 822 501 l 843 636 z m 118 335 l 96 200 l 775 200 l 797 335 z "},"≠":{"ha":917,"x_min":0,"x_max":0,"o":"m 124 26 l 278 26 l 397 200 l 775 200 l 797 335 l 490 335 l 604 501 l 822 501 l 843 636 l 697 636 l 818 811 l 663 811 l 542 636 l 165 636 l 143 501 l 450 501 l 335 335 l 118 335 l 96 200 l 243 200 z "},">":{"ha":917,"x_min":0,"x_max":0,"o":"m 786 260 l 813 432 l 172 678 l 146 524 l 638 353 l 93 182 l 67 15 z "},"<":{"ha":917,"x_min":0,"x_max":0,"o":"m 771 169 l 281 340 l 825 510 l 850 678 l 132 433 l 106 260 l 746 15 z "},"≥":{"ha":917,"x_min":0,"x_max":0,"o":"m 808 407 l 836 581 l 196 825 l 171 672 l 661 501 l 117 331 l 92 163 z m 86 135 l 64 0 l 743 0 l 765 135 z "},"≤":{"ha":917,"x_min":0,"x_max":0,"o":"m 794 317 l 304 488 l 849 658 l 874 825 l 156 581 l 129 408 l 769 163 z m 64 0 l 743 0 l 765 135 l 86 135 z "},"±":{"ha":917,"x_min":0,"x_max":0,"o":"m 161 614 l 140 479 l 410 479 l 374 250 l 513 250 l 549 479 l 818 479 l 839 614 l 569 614 l 606 843 l 468 843 l 432 614 z m 64 0 l 743 0 l 765 135 l 86 135 z "},"≈":{"ha":917,"x_min":0,"x_max":0,"o":"m 701 676 b 613 574 688 606 661 574 b 325 683 514 574 451 683 b 111 453 211 683 135 601 l 239 453 b 328 550 251 519 279 550 b 615 440 421 550 483 440 b 829 676 729 440 803 522 z m 701 400 b 613 296 688 328 661 296 b 325 407 514 296 451 407 b 111 175 211 407 135 325 l 239 175 b 328 274 251 242 279 274 b 615 163 421 274 483 163 b 829 400 729 163 803 244 z "},"~":{"ha":917,"x_min":0,"x_max":0,"o":"m 701 542 b 613 439 688 471 661 439 b 325 549 514 439 451 549 b 111 318 211 549 135 467 l 239 318 b 328 415 251 385 279 415 b 615 306 421 415 483 306 b 829 542 729 306 803 388 z "},"¬":{"ha":917,"x_min":0,"x_max":0,"o":"m 807 521 l 122 521 l 99 386 l 635 386 l 593 124 l 744 124 z "},"∅":{"ha":1149,"x_min":0,"x_max":0,"o":"m 546 -17 b 1103 588 854 -17 1103 249 b 1053 806 1103 669 1085 743 l 1192 919 l 1118 1004 l 988 899 b 654 1032 908 983 792 1032 b 99 426 347 1032 99 767 b 147 211 99 346 115 274 l 10 100 l 85 15 l 211 118 b 546 -17 290 33 407 -17 z m 281 443 b 639 865 281 679 444 865 b 849 783 726 865 799 836 l 296 333 b 281 443 286 367 281 403 z m 563 150 b 353 235 475 150 403 181 l 906 686 b 922 572 917 651 922 614 b 563 150 922 336 758 150 z "},"∞":{"ha":1225,"x_min":0,"x_max":0,"o":"m 69 361 b 328 121 69 228 185 121 b 614 286 436 121 513 165 b 872 121 676 172 756 121 b 1172 438 1046 121 1172 254 b 925 678 1172 574 1065 678 b 628 511 804 678 701 621 b 381 678 575 625 497 678 b 69 361 204 678 69 542 z m 219 383 b 371 535 219 471 285 535 b 526 400 444 535 503 488 b 342 263 474 307 413 263 b 219 383 268 263 219 311 z m 715 399 b 901 535 769 492 829 535 b 1022 414 974 535 1022 488 b 872 263 1022 326 957 263 b 715 399 797 263 739 310 z "},"∫":{"ha":601,"x_min":0,"x_max":0,"o":"m 99 -18 b 365 224 251 -18 339 63 l 456 794 b 543 886 465 857 494 886 l 644 886 l 669 1035 l 557 1035 b 290 793 404 1035 317 954 l 200 221 b 111 132 190 161 161 132 l 10 132 l -15 -18 z "},"∆":{"ha":954,"x_min":0,"x_max":0,"o":"m 835 0 l 858 144 l 663 1015 l 500 1015 l 33 146 l 11 0 z m 528 746 b 553 797 536 761 543 776 b 563 746 556 779 557 768 l 696 144 l 211 144 z "},"∏":{"ha":963,"x_min":0,"x_max":0,"o":"m 229 0 l 364 856 l 760 856 l 625 0 l 796 0 l 956 1015 l 219 1015 l 58 0 z "},"∑":{"ha":782,"x_min":0,"x_max":0,"o":"m 661 0 l 688 160 l 229 160 l 578 510 l 321 856 l 797 856 l 822 1015 l 164 1015 l 136 842 l 378 518 l 31 175 l 3 0 z "},"√":{"ha":994,"x_min":0,"x_max":0,"o":"m 213 0 l 371 0 l 838 868 l 1040 868 l 1064 1015 l 739 1015 l 318 211 l 215 686 l 54 686 z "},"µ":{"ha":793,"x_min":0,"x_max":0,"o":"m 139 -317 l 176 32 b 299 -18 203 0 254 -18 b 501 93 390 -18 442 17 l 500 0 l 651 0 l 760 686 l 596 686 l 539 318 b 354 129 519 197 453 129 b 236 297 268 129 218 193 l 297 686 l 135 686 l -24 -317 z "},"∂":{"ha":872,"x_min":0,"x_max":0,"o":"m 65 313 b 411 -15 65 113 200 -15 b 824 493 653 -15 824 194 b 611 1035 824 699 763 850 l 419 1035 b 649 657 522 914 604 779 b 460 722 604 699 536 722 b 65 313 239 722 65 542 z m 236 319 b 461 575 236 460 338 575 b 638 399 574 575 638 510 b 408 132 638 253 533 132 b 236 319 303 132 236 206 z "},"%":{"ha":1308,"x_min":0,"x_max":0,"o":"m 640 800 b 400 1035 640 944 549 1035 b 115 746 246 1035 115 903 b 356 511 115 601 207 511 b 640 800 510 511 640 643 z m 1218 1015 l 1044 1015 l 140 0 l 314 0 z m 508 792 b 361 633 508 706 442 633 b 249 753 289 633 249 676 b 394 913 249 842 314 913 b 508 792 467 913 508 869 z m 1244 271 b 1004 504 1244 415 1151 504 b 719 217 849 504 719 374 b 958 -18 719 72 811 -18 b 1244 271 1114 -18 1244 114 z m 1113 263 b 964 103 1113 175 1046 103 b 851 224 892 103 851 146 b 999 383 851 313 918 383 b 1113 263 1071 383 1113 340 z "},"‰":{"ha":1881,"x_min":0,"x_max":0,"o":"m 640 800 b 400 1035 640 944 549 1035 b 115 746 246 1035 115 903 b 356 511 115 601 207 511 b 640 800 510 511 640 643 z m 1218 1015 l 1044 1015 l 140 0 l 314 0 z m 508 792 b 361 633 508 706 442 633 b 249 753 289 633 249 676 b 394 913 249 842 314 913 b 508 792 467 913 508 869 z m 1244 271 b 1004 504 1244 415 1151 504 b 719 217 849 504 719 374 b 958 -18 719 72 811 -18 b 1244 271 1114 -18 1244 114 z m 1818 271 b 1576 504 1818 415 1725 504 b 1293 217 1422 504 1293 374 b 1532 -18 1293 72 1385 -18 b 1818 271 1688 -18 1818 114 z m 1113 263 b 964 103 1113 175 1046 103 b 851 224 892 103 851 146 b 999 383 851 313 918 383 b 1113 263 1071 383 1113 340 z m 1685 263 b 1538 103 1685 175 1618 103 b 1425 224 1465 103 1425 146 b 1572 383 1425 313 1490 383 b 1685 263 1644 383 1685 340 z "},"↑":{"ha":1149,"x_min":0,"x_max":0,"o":"m 225 563 l 558 893 l 558 0 l 688 0 l 688 893 l 1022 563 l 1114 654 l 624 1142 l 132 654 z "},"↗":{"ha":1146,"x_min":0,"x_max":0,"o":"m 368 886 l 838 886 l 43 90 l 135 0 l 929 794 l 929 325 l 1060 325 l 1060 1015 l 368 1015 z "},"→":{"ha":1363,"x_min":0,"x_max":0,"o":"m 711 819 l 1043 488 l 106 486 l 106 358 l 1043 358 l 711 25 l 803 -67 l 1292 422 l 803 911 z "},"↘":{"ha":1328,"x_min":0,"x_max":0,"o":"m 1060 693 l 1060 224 l 267 1015 l 176 925 l 968 132 l 499 132 l 499 1 l 1189 1 l 1189 693 z "},"↓":{"ha":1143,"x_min":0,"x_max":0,"o":"m 968 419 l 635 88 l 635 1042 l 506 1042 l 506 88 l 174 419 l 82 328 l 569 -161 l 1058 328 z "},"↙":{"ha":1146,"x_min":0,"x_max":0,"o":"m 831 129 l 360 129 l 1156 926 l 1064 1017 l 269 221 l 269 690 l 139 690 l 138 0 l 829 0 z "},"←":{"ha":1363,"x_min":0,"x_max":0,"o":"m 674 -1 l 340 331 l 1278 331 l 1278 460 l 340 460 l 674 793 l 582 883 l 92 393 l 582 -94 z "},"↖":{"ha":1304,"x_min":0,"x_max":0,"o":"m 190 1015 l 190 324 l 319 322 l 319 793 l 1090 0 l 1181 90 l 411 883 l 881 885 l 881 1014 z "},"↔":{"ha":1567,"x_min":0,"x_max":0,"o":"m 89 381 l 471 -4 l 471 181 l 332 314 l 1244 314 l 1108 182 l 1108 -3 l 1489 381 l 1108 760 l 1108 575 l 1246 443 l 932 444 l 932 446 l 656 446 l 656 444 l 333 443 l 469 574 l 469 760 z "},"↕":{"ha":1031,"x_min":0,"x_max":0,"o":"m 531 -253 l 914 129 l 729 129 l 597 -8 l 597 903 l 729 767 l 914 767 l 531 1147 l 151 767 l 336 767 l 468 904 l 467 590 l 465 590 l 465 315 l 467 315 l 468 -8 l 336 129 l 151 129 z "},"●":{"ha":1258,"x_min":0,"x_max":0,"o":"m 649 -76 b 1188 463 944 -76 1188 165 b 649 1001 1188 760 944 1001 b 110 463 351 1001 110 760 b 649 -76 110 165 350 -76 z "},"○":{"ha":1258,"x_min":0,"x_max":0,"o":"m 649 -76 b 1188 463 944 -76 1188 165 b 649 1001 1188 760 944 1001 b 110 463 351 1001 110 760 b 649 -76 110 165 350 -76 z m 649 43 b 229 463 417 43 229 232 b 649 882 229 693 417 882 b 1068 463 878 882 1068 692 b 649 43 1068 232 879 43 z "},"◊":{"ha":890,"x_min":0,"x_max":0,"o":"m 832 493 l 551 986 l 388 986 l 107 493 l 388 0 l 551 0 z m 660 493 l 469 149 l 279 493 l 469 838 z "},"■":{"ha":1310,"x_min":0,"x_max":0,"o":"m 185 0 l 1171 0 l 1171 986 l 185 986 z "},"□":{"ha":1310,"x_min":0,"x_max":0,"o":"m 185 0 l 1171 0 l 1171 986 l 185 986 z m 1043 858 l 1043 128 l 314 128 l 314 858 z "},"▲":{"ha":1342,"x_min":0,"x_max":0,"o":"m 29 0 l 1204 0 l 617 986 z "},"△":{"ha":1343,"x_min":0,"x_max":0,"o":"m 618 990 l 29 4 l 1206 4 z m 235 117 l 618 758 l 1001 117 z "},"☮":{"ha":1258,"x_min":0,"x_max":0,"o":"m 649 -76 b 1188 463 944 -76 1188 165 b 649 1001 1188 760 944 1001 b 110 463 351 1001 110 760 b 649 -76 110 165 350 -76 z m 229 463 b 594 878 229 675 388 851 l 594 524 l 264 297 b 229 463 242 347 229 404 z m 1068 463 b 1033 297 1068 404 1056 347 l 703 524 l 703 878 b 1068 463 907 851 1068 674 z m 318 204 l 594 392 l 594 47 b 318 204 483 61 385 119 z m 703 392 l 978 204 b 703 47 913 119 814 61 z "},"✓":{"ha":931,"x_min":0,"x_max":0,"o":"m 350 10 l 886 653 l 776 746 l 346 226 l 149 438 l 50 333 z "},"@":{"ha":1290,"x_min":0,"x_max":0,"o":"m 353 296 b 563 118 353 192 439 118 b 788 238 664 118 746 161 b 951 118 793 163 856 118 b 1251 535 1133 118 1251 282 b 743 1033 1251 826 1040 1033 b 74 364 353 1033 74 756 b 576 -157 74 58 282 -157 b 929 -54 708 -157 822 -124 l 894 38 b 590 -54 801 -22 700 -54 b 183 365 347 -54 183 115 b 736 931 183 693 415 931 b 1142 535 981 931 1142 774 b 967 218 1142 367 1060 218 b 910 297 921 218 901 244 l 944 515 b 700 778 969 676 872 778 b 411 556 539 778 433 694 l 538 556 b 682 660 547 624 596 660 b 807 539 767 660 813 619 l 806 525 l 614 510 b 353 296 444 496 353 419 z m 504 308 b 653 411 504 372 547 401 l 785 422 l 781 389 b 600 233 765 293 697 233 b 504 308 539 233 504 260 z "},"&":{"ha":1003,"x_min":0,"x_max":0,"o":"m 742 0 l 919 0 l 794 178 b 922 486 858 260 903 364 l 761 486 b 704 306 750 417 731 357 l 539 539 b 763 831 697 632 763 719 b 535 1032 763 953 674 1032 b 258 775 375 1032 258 922 b 338 572 258 714 278 663 b 49 247 131 486 49 393 b 381 -18 49 90 185 -18 b 688 76 497 -18 603 15 z m 413 785 b 524 900 413 853 460 900 b 610 821 576 900 610 869 b 475 631 610 742 563 676 b 413 785 428 696 413 732 z m 225 272 b 407 475 225 358 281 421 l 608 189 b 410 124 553 146 486 124 b 225 272 294 124 225 179 z "},"¶":{"ha":826,"x_min":0,"x_max":0,"o":"m 99 699 b 324 453 99 563 186 453 l 376 453 l 286 -119 l 428 -119 l 607 1015 l 408 1015 b 99 699 229 1015 99 892 z m 613 -121 l 792 1015 l 729 1015 l 550 -121 z "},"§":{"ha":657,"x_min":0,"x_max":0,"o":"m 644 531 b 501 704 644 619 600 674 l 386 739 b 299 826 328 757 299 785 b 406 911 299 881 338 911 b 510 806 472 911 510 872 l 665 806 b 417 1033 665 938 561 1033 b 146 822 251 1033 146 951 b 244 675 146 758 179 708 b 65 486 135 653 65 583 b 208 311 65 397 113 339 l 324 276 b 411 192 383 260 411 232 b 308 108 411 139 374 108 b 200 217 242 108 200 150 l 44 217 b 296 -14 44 76 143 -14 b 564 193 454 -14 564 71 b 486 331 564 256 539 299 b 644 531 581 363 644 438 z m 489 522 b 347 399 489 450 431 399 b 221 492 268 399 221 433 b 363 617 221 564 281 617 b 489 522 442 617 489 582 z "},"©":{"ha":1121,"x_min":0,"x_max":0,"o":"m 539 -18 b 1099 569 843 -18 1099 250 b 636 1035 1099 843 907 1035 b 76 447 331 1035 76 767 b 539 -18 76 175 268 -18 z m 547 83 b 182 456 329 83 182 233 b 628 933 182 718 382 933 b 993 563 846 933 993 783 b 547 83 993 299 793 83 z m 332 471 b 567 235 332 331 428 235 b 829 440 689 235 799 321 l 704 440 b 574 344 683 378 638 344 b 458 476 504 344 458 397 b 613 667 458 588 524 667 b 717 575 674 667 711 635 l 843 575 b 619 778 835 699 749 778 b 332 471 451 778 332 650 z "},"®":{"ha":694,"x_min":0,"x_max":0,"o":"m 383 443 b 703 775 568 443 703 596 b 438 1035 703 924 606 1035 b 117 703 253 1035 117 882 b 383 443 117 554 215 443 z m 385 493 b 172 703 247 493 172 579 b 436 985 172 854 279 985 b 649 775 574 985 649 899 b 385 493 649 624 540 493 z m 325 578 l 344 697 l 422 697 l 464 578 l 524 578 l 476 708 b 556 815 525 726 556 764 b 449 908 556 875 513 908 l 321 908 l 269 578 z m 497 810 b 425 749 497 772 467 749 l 351 749 l 368 856 l 440 856 b 497 810 475 856 497 840 z "},"℗":{"ha":690,"x_min":0,"x_max":0,"o":"m 381 443 b 701 775 560 443 701 590 b 436 1035 701 932 596 1035 b 115 703 257 1035 115 888 b 381 443 115 546 221 443 z m 383 493 b 169 703 250 493 169 574 b 433 985 169 861 286 985 b 647 775 567 985 647 904 b 383 493 647 617 531 493 z m 336 571 l 351 668 l 424 668 b 565 800 507 668 565 722 b 458 900 565 860 522 900 l 333 900 l 281 571 z m 381 847 l 451 847 b 507 796 486 847 507 829 b 432 721 507 750 478 721 l 361 721 z "},"™":{"ha":886,"x_min":0,"x_max":0,"o":"m 260 951 l 208 621 l 276 621 l 328 951 l 456 951 l 465 1015 l 142 1015 l 132 951 z m 514 621 l 553 875 l 621 621 l 678 621 l 824 876 l 783 621 l 847 621 l 908 1015 l 843 1015 l 658 690 l 574 1015 l 511 1015 l 450 621 z "},"°":{"ha":429,"x_min":0,"x_max":0,"o":"m 476 872 b 311 1033 476 965 407 1033 b 114 829 199 1033 114 944 b 279 667 114 736 183 667 b 476 872 392 667 476 757 z m 382 860 b 289 757 382 801 343 757 b 208 842 240 757 208 790 b 301 944 208 900 247 944 b 382 860 350 944 382 911 z "},"|":{"ha":463,"x_min":0,"x_max":0,"o":"m 94 -122 l 221 -122 l 414 1097 l 288 1097 z "},"¦":{"ha":464,"x_min":0,"x_max":0,"o":"m 415 1097 l 289 1097 l 211 610 l 338 610 z m 96 -122 l 222 -122 l 300 365 l 172 365 z "},"†":{"ha":453,"x_min":0,"x_max":0,"o":"m 185 396 l 286 396 l 346 779 l 492 779 l 507 876 l 361 876 l 383 1015 l 282 1015 l 260 876 l 115 876 l 100 779 l 244 779 z "},"‡":{"ha":453,"x_min":0,"x_max":0,"o":"m 183 396 l 285 396 l 310 549 l 454 549 l 469 646 l 325 646 l 343 765 l 489 765 l 506 863 l 358 863 l 383 1015 l 282 1015 l 257 863 l 113 863 l 97 765 l 242 765 l 224 646 l 79 646 l 64 549 l 208 549 z "},"℮":{"ha":1094,"x_min":0,"x_max":0,"o":"m 115 490 b 588 -12 115 192 304 -12 b 974 208 761 -12 906 72 l 921 228 b 590 43 863 118 733 43 b 254 206 443 43 326 103 l 254 456 l 1029 456 b 1031 529 1031 476 1031 503 b 574 986 1031 815 842 986 b 115 490 307 986 115 783 z m 254 758 b 574 931 322 861 435 931 b 892 783 706 931 822 878 l 892 506 l 254 506 z "},"№":{"ha":1751,"x_min":0,"x_max":0,"o":"m 1746 747 b 1442 1033 1746 911 1617 1033 b 1076 667 1238 1033 1076 872 b 1381 379 1076 504 1208 379 b 1746 747 1588 379 1746 539 z m 229 0 l 343 726 l 697 0 l 867 0 l 1028 1015 l 857 1015 l 743 289 l 389 1015 l 219 1015 l 58 0 z m 1592 732 b 1392 522 1592 613 1504 522 b 1229 685 1297 522 1229 592 b 1431 886 1229 799 1315 886 b 1592 732 1528 886 1592 825 z m 1624 163 l 1646 304 l 1049 304 l 1026 163 z "},"^":{"ha":704,"x_min":0,"x_max":0,"o":"m 274 556 l 444 879 l 513 556 l 647 556 l 538 1015 l 379 1015 l 125 556 z "},"′":{"ha":258,"x_min":0,"x_max":0,"o":"m 293 947 b 233 1035 308 999 279 1035 b 157 949 190 1035 160 1004 l 143 683 l 222 683 z "},"̈":{"ha":574,"x_min":0,"x_max":0,"o":"m 285 1085 b 390 1190 342 1085 390 1135 b 313 1268 390 1236 358 1268 b 208 1161 256 1268 208 1219 b 285 1085 208 1115 239 1085 z m 525 1085 b 631 1190 583 1085 631 1135 b 554 1268 631 1236 599 1268 b 450 1161 497 1268 450 1219 b 525 1085 450 1115 479 1085 z "},"̇":{"ha":308,"x_min":0,"x_max":0,"o":"m 271 1085 b 381 1196 331 1085 381 1136 b 301 1276 381 1243 349 1276 b 192 1165 242 1276 192 1225 b 271 1085 192 1117 222 1085 z "},"̀":{"ha":375,"x_min":0,"x_max":0,"o":"m 429 1068 l 363 1271 l 217 1271 l 315 1068 z "},"́":{"ha":378,"x_min":0,"x_max":0,"o":"m 461 1271 l 303 1271 l 169 1068 l 296 1068 z "},"̋":{"ha":596,"x_min":0,"x_max":0,"o":"m 451 1271 l 311 1271 l 169 1068 l 289 1068 z m 661 1271 l 519 1271 l 371 1068 l 490 1068 z "},"̂":{"ha":522,"x_min":0,"x_max":0,"o":"m 306 1068 l 404 1204 l 461 1068 l 582 1068 l 494 1281 l 326 1281 l 171 1068 z "},"̌":{"ha":517,"x_min":0,"x_max":0,"o":"m 290 1068 l 458 1068 l 613 1281 l 479 1281 l 379 1144 l 324 1281 l 201 1281 z "},"̆":{"ha":572,"x_min":0,"x_max":0,"o":"m 525 1274 b 426 1169 514 1208 485 1169 b 339 1274 368 1169 339 1207 l 222 1274 b 418 1057 222 1140 289 1057 b 644 1274 556 1057 624 1142 z "},"̊":{"ha":453,"x_min":0,"x_max":0,"o":"m 346 1053 b 542 1250 457 1053 542 1138 b 385 1403 542 1339 476 1403 b 190 1201 275 1403 190 1317 b 346 1053 190 1113 253 1053 z m 354 1142 b 286 1214 313 1142 286 1171 b 376 1313 286 1271 325 1313 b 446 1242 418 1313 446 1283 b 354 1142 446 1185 408 1142 z "},"̃":{"ha":583,"x_min":0,"x_max":0,"o":"m 278 1079 b 339 1161 286 1135 303 1161 b 518 1079 399 1161 424 1079 b 669 1272 607 1079 658 1147 l 568 1272 b 508 1190 561 1217 546 1190 b 328 1272 442 1190 418 1272 b 179 1079 244 1272 186 1197 z "},"̄":{"ha":529,"x_min":0,"x_max":0,"o":"m 207 1121 l 569 1121 l 588 1236 l 225 1236 z "},"̒":{"ha":289,"x_min":0,"x_max":0,"o":"m 363 1176 b 300 1239 363 1214 338 1239 b 269 1233 290 1239 279 1238 b 369 1286 279 1274 315 1290 l 378 1342 b 189 1164 267 1353 189 1268 b 264 1079 189 1115 217 1079 b 363 1176 319 1079 363 1122 z "},"̦":{"ha":290,"x_min":0,"x_max":0,"o":"m 156 -119 b 81 -35 156 -69 128 -35 b -19 -131 25 -35 -19 -78 b 43 -194 -19 -167 7 -194 b 76 -187 56 -194 68 -192 b -25 -240 67 -226 33 -246 l -33 -296 b 156 -119 78 -307 156 -224 z "},"̧":{"ha":353,"x_min":0,"x_max":0,"o":"m -51 -269 b 51 -294 -29 -283 10 -294 b 219 -153 153 -294 219 -239 b 121 -57 219 -90 168 -57 b 82 -62 106 -57 93 -58 l 128 8 l 135 51 l 85 51 l -1 -85 l 8 -131 b 76 -118 32 -122 53 -118 b 128 -161 108 -118 128 -133 b 47 -218 128 -197 96 -218 b -39 -193 17 -218 -11 -208 z "},"̸":{"ha":750,"x_min":0,"x_max":0,"o":"m 760 756 l 618 756 l -8 -60 l 138 -60 z "},"´":{"ha":385,"x_min":0,"x_max":0,"o":"m 461 1271 l 303 1271 l 169 1068 l 296 1068 z "},"˘":{"ha":585,"x_min":0,"x_max":0,"o":"m 525 1274 b 426 1169 514 1208 485 1169 b 339 1274 368 1169 339 1207 l 222 1274 b 418 1057 222 1140 289 1057 b 644 1274 556 1057 624 1142 z "},"ˇ":{"ha":536,"x_min":0,"x_max":0,"o":"m 290 1068 l 458 1068 l 613 1281 l 479 1281 l 379 1144 l 324 1281 l 201 1281 z "},"¸":{"ha":360,"x_min":0,"x_max":0,"o":"m -51 -269 b 51 -294 -29 -283 10 -294 b 219 -153 153 -294 219 -239 b 121 -57 219 -90 168 -57 b 82 -62 106 -57 93 -58 l 128 8 l 135 51 l 85 51 l -1 -85 l 8 -131 b 76 -118 32 -122 53 -118 b 128 -161 108 -118 128 -133 b 47 -218 128 -197 96 -218 b -39 -193 17 -218 -11 -208 z "},"ˆ":{"ha":536,"x_min":0,"x_max":0,"o":"m 306 1068 l 404 1204 l 461 1068 l 582 1068 l 494 1281 l 326 1281 l 171 1068 z "},"¨":{"ha":586,"x_min":0,"x_max":0,"o":"m 285 1085 b 390 1190 342 1085 390 1135 b 313 1268 390 1236 358 1268 b 208 1161 256 1268 208 1219 b 285 1085 208 1115 239 1085 z m 525 1085 b 631 1190 583 1085 631 1135 b 554 1268 631 1236 599 1268 b 450 1161 497 1268 450 1219 b 525 1085 450 1115 479 1085 z "},"˙":{"ha":314,"x_min":0,"x_max":0,"o":"m 271 1085 b 381 1196 331 1085 381 1136 b 301 1276 381 1243 349 1276 b 192 1165 242 1276 192 1225 b 271 1085 192 1117 222 1085 z "},"`":{"ha":383,"x_min":0,"x_max":0,"o":"m 429 1068 l 363 1271 l 217 1271 l 315 1068 z "},"˝":{"ha":610,"x_min":0,"x_max":0,"o":"m 451 1271 l 311 1271 l 169 1068 l 289 1068 z m 661 1271 l 519 1271 l 371 1068 l 490 1068 z "},"¯":{"ha":539,"x_min":0,"x_max":0,"o":"m 207 1121 l 569 1121 l 588 1236 l 225 1236 z "},"˛":{"ha":319,"x_min":0,"x_max":0,"o":"m 114 0 b -18 -161 35 -31 -18 -93 b 99 -268 -18 -222 25 -268 b 167 -256 126 -268 146 -264 l 185 -146 b 146 -154 171 -151 156 -154 b 100 -112 117 -154 100 -136 b 214 0 100 -71 146 -24 z "},"˚":{"ha":463,"x_min":0,"x_max":0,"o":"m 346 1053 b 542 1250 457 1053 542 1138 b 385 1403 542 1339 476 1403 b 190 1201 275 1403 190 1317 b 346 1053 190 1113 253 1053 z m 354 1142 b 286 1214 313 1142 286 1171 b 376 1313 286 1271 325 1313 b 446 1242 418 1313 446 1283 b 354 1142 446 1185 408 1142 z "},"˜":{"ha":597,"x_min":0,"x_max":0,"o":"m 278 1079 b 339 1161 286 1135 303 1161 b 518 1079 399 1161 424 1079 b 669 1272 607 1079 658 1147 l 568 1272 b 508 1190 561 1217 546 1190 b 328 1272 442 1190 418 1272 b 179 1079 244 1272 186 1197 z "},"":{"ha":2514,"x_min":0,"x_max":0,"o":"m 204 0 l 504 0 l 504 972 l 204 972 z m 567 689 l 867 689 l 867 972 l 567 972 z m 928 0 l 1229 0 l 1229 972 l 928 972 z m 1290 689 l 1590 689 l 1590 972 l 1290 972 z m 1651 0 l 1953 0 l 1953 972 l 1651 972 z m 2014 689 l 2314 689 l 2314 972 l 2014 972 z m 2014 343 l 2314 343 l 2314 628 l 2014 628 z "},"ı":{"ha":338,"x_min":0,"x_max":0,"o":"m 33 0 l 196 0 l 304 686 l 142 686 z "},"ȷ":{"ha":335,"x_min":0,"x_max":0,"o":"m -172 -319 b -62 -336 -133 -332 -106 -336 b 178 -97 69 -336 153 -256 l 301 686 l 139 686 l 18 -79 b -74 -183 7 -151 -21 -183 b -131 -175 -94 -183 -110 -182 z "},"̵":{"ha":797,"x_min":0,"x_max":0,"o":"m 126 890 l 111 790 l 574 790 l 589 890 z "},"̷":{"ha":363,"x_min":0,"x_max":0,"o":"m 40 421 l 376 572 l 394 690 l 60 540 z "}}}
